<svg xmlns="http://www.w3.org/2000/svg" xmlns:xlink="http://www.w3.org/1999/xlink" x="0px" y="0px" viewBox="0 0 100 100" style="enable-background:new 0 0 100 100;fill:#fc800a;" xml:space="preserve">	<style type="text/css">	.bulb{fill:none;stroke:#ffffff;stroke-width:4;stroke-linecap:round;stroke-linejoin:round;}	</style>	<g>		<path class="bulb" d="M50.1,10.9c-3.6-0.1-7.1,1.3-9.7,3.7s-4.1,5.9-4.2,9.5c0,3.5,1.3,6.9,3.6,9.5c1.9,2.5,3.2,2.8,4,6.5"></path>		<path class="bulb" d="M50.1,10.9c3.6-0.1,7.1,1.3,9.7,3.7c2.6,2.5,4.1,5.9,4.2,9.5c0,3.5-1.3,6.9-3.6,9.5c-1.9,2.5-3.5,2.8-4.3,6.5"></path>		<path class="bulb" d="M56.2,40.2H44"></path>		<path class="bulb" d="M50.1,49.5h3.2l2.8-4.6v-4.6"></path>		<path class="bulb" d="M54.4,18.2c0.9,0.5,1.7,1.2,2.4,2.1c0.6,0.8,1.1,1.8,1.3,2.9"></path>		<path class="bulb" d="M43.8,40.2v4.6l3.1,4.6H50"></path>		<path class="bulb" d="M50,68.2v29.3"></path>		<path class="bulb" d="M50,68.2L21.7,54.1"></path>		<path class="bulb" d="M50,68.2l-10,14.1L11.7,68.2l10-14.1"></path>		<path class="bulb" d="M50,68.2l9.8,14.2l28.3-14.1l-9.8-14.2"></path>		<path class="bulb" d="M50,68.2l28.3-14.1"></path>		<path class="bulb" d="M50,97.5L21.7,83.4v-9.3"></path>		<path class="bulb" d="M50,97.5l28.3-14.1v-9.3"></path>		<path class="bulb" d="M50.6,2.5v1.8"></path>		<path class="bulb" d="M33.6,8.4l2.2,2.2"></path>		<path class="bulb" d="M27.4,25.7h1.8"></path>		<path class="bulb" d="M33.6,41.1l2.2-2.2"></path>		<path class="bulb" d="M66.4,41.1L64.2,39"></path>		<path class="bulb" d="M73.8,25.7h-3.6"></path>		<path class="bulb" d="M66.4,8.4l-2.2,2.2"></path>		<path class="bulb" d="M37.6,46.1l-15.9,8"></path>		<path class="bulb" d="M27.6,35.2L8.9,44.6l12.8,9.5"></path>		<path class="bulb" d="M72.3,35.2l18.8,9.4l-12.8,9.5"></path>		<path class="bulb" d="M78.3,54.1l-15.9-8"></path>	</g></svg>
