<svg xmlns="http://www.w3.org/2000/svg" xmlns:xlink="http://www.w3.org/1999/xlink" x="0px" y="0px" viewBox="0 0 100 100" style="enable-background:new 0 0 100 100;" xml:space="preserve">	<style type="text/css">	.doublechats{fill:none;stroke:#ffffff;stroke-width:4;stroke-linecap:round;stroke-linejoin:round;}	</style>	<g>		<path class="doublechats" d="M63.6,40.2c0,4-1.6,7.8-4.4,10.7c-2.8,2.8-6.7,4.4-10.7,4.4H30.4L15.3,65.8l4.5-10.6h-1.5  c-4,0-7.8-1.6-10.7-4.4C4.9,48,3.3,44.2,3.3,40.2V25.1c0-4,1.6-7.8,4.4-10.7c2.8-2.8,6.7-4.4,10.7-4.4h30.2c4,0,7.8,1.6,10.7,4.4  c2.8,2.8,4.4,6.7,4.4,10.7V40.2z"></path>		<path class="doublechats" d="M69.6,34.2h12.1c4,0,7.8,1.6,10.7,4.4c2.8,2.8,4.4,6.7,4.4,10.7v15.1c0,4-1.6,7.8-4.4,10.7  c-2.8,2.8-6.7,4.4-10.7,4.4h-1.5L84.7,90L69.6,79.4H57.5c-4,0-7.8-1.6-10.7-4.4c-2.8-2.8-4.4-6.7-4.4-10.7v-3"></path>		<path class="doublechats" d="M69.1,48.6v12.7"></path>		<path class="doublechats" d="M33.4,37.2v-1.5c0-2.6,4.5-3.7,4.5-7.5c0-0.6,0-1.2-0.3-1.8c-0.2-0.6-0.5-1.1-1-1.5c-0.4-0.4-0.9-0.8-1.5-1  c-0.6-0.2-1.2-0.3-1.8-0.3c-1.2,0-2.4,0.5-3.2,1.4c-0.8,0.9-1.3,2-1.3,3.3"></path>	</g></svg>
