<svg xmlns="http://www.w3.org/2000/svg" x="0px" y="0px" viewBox="0 0 125 125" style="enable-background:new 0 0 125 125;" xml:space="preserve"><g>	<g class="wdt-cus-telephone">		<path d="M60.5,119.1c-1.9,0-3.6-0.2-5.3-0.5c-6.4-1.4-10.9-5.2-13.1-11.2c-0.4-1-0.5-2.1-0.3-3.2c0.2-1.1,0.6-2.1,1.3-3   c5.2-6.3,18.2-10.3,24.9-9.1c0.8,0.1,1.6,0.5,2.2,1.1c0.6,0.6,1.1,1.3,1.3,2.1c0.4,1.8,0.7,3.6,0.8,5.4c0,0,0,0.1,0,0.1   s0,0.1,0.1,0.1c0,0,0.1,0,0.1,0c0,0,0.1,0,0.1,0C78.3,99,84.4,94.9,90.1,89c5.7-5.9,9.5-12.2,11.2-18c0,0,0-0.1,0-0.1   c0,0,0-0.1,0-0.1c0,0-0.1-0.1-0.1-0.1c0,0-0.1,0-0.1,0c-1.8,0-3.6-0.2-5.4-0.5c-0.8-0.2-1.6-0.6-2.2-1.2c-0.6-0.6-1-1.3-1.2-2.2   c-1.5-6.6,2-19.8,8.1-25.3c0.8-0.7,1.8-1.2,2.9-1.5c1.1-0.2,2.2-0.2,3.2,0.2c6,1.9,10.1,6.3,11.7,12.6c3.3,12.8-4,31.2-18,45.8   C88.1,111.4,72.8,119.1,60.5,119.1z M65.4,94.9c-5.8,0-15.9,3.2-20,8.2c-0.4,0.4-0.6,1-0.7,1.6s0,1.2,0.2,1.7   c1.8,5,5.5,8.2,10.9,9.3c12,2.5,28.9-5.1,42.2-19l0,0c13.4-13.8,20.3-31.1,17.3-43c-1.3-5.3-4.7-8.9-9.7-10.5   c-0.6-0.2-1.2-0.2-1.7-0.1c-0.6,0.1-1.1,0.4-1.5,0.8c-5.5,4.9-8.3,17.2-7.1,22.3c0.1,0.3,0.2,0.5,0.4,0.7c0.2,0.2,0.4,0.3,0.7,0.4   c1.6,0.3,3.2,0.5,4.8,0.5c0.5,0,1,0.1,1.4,0.3c0.4,0.2,0.8,0.5,1.1,0.9c0.3,0.4,0.5,0.9,0.6,1.3c0.1,0.5,0.1,1-0.1,1.5   c-1.8,6.3-6,13-12,19.3c-6.1,6.3-12.6,10.6-18.8,12.7c-0.5,0.2-1,0.2-1.5,0.1c-0.5-0.1-1-0.3-1.4-0.5s-0.7-0.7-1-1.1   s-0.4-0.9-0.4-1.4c-0.1-1.6-0.3-3.3-0.7-4.9c-0.1-0.2-0.2-0.5-0.4-0.7c-0.2-0.2-0.4-0.3-0.7-0.4C66.9,94.9,66.2,94.9,65.4,94.9z"></path>	</g></g><g class="wdt-cus-hours">	<g>		<path d="M52.5,76.2H32c-0.5,0-0.9-0.1-1.3-0.4c-0.4-0.2-0.7-0.6-0.8-1c-0.2-0.4-0.2-0.9-0.2-1.3c0.1-0.4,0.3-0.8,0.6-1.2l0.8-0.9   C37.5,64.5,44,57.2,48,52c2-2.6,2.3-5.9,0.9-8.9c-1.3-2.9-4-4.7-7.1-4.8c-0.2,0-0.3,0-0.5,0c-2.6,0-5,1-6.8,2.8   c-1.8,1.8-2.8,4.3-2.8,6.8c0,0.8-0.7,1.5-1.5,1.5s-1.5-0.7-1.5-1.5c0-3.4,1.3-6.6,3.7-9c2.4-2.4,5.6-3.7,9-3.7c0.2,0,0.4,0,0.6,0   c4.2,0.2,7.8,2.7,9.7,6.6c1.8,3.9,1.4,8.5-1.2,12c-4,5.3-10.5,12.5-16.8,19.4h18.9c0.8,0,1.5,0.7,1.5,1.5S53.3,76.2,52.5,76.2z"></path>	</g>	<g>		<path d="M78.7,76.2c-0.8,0-1.5-0.7-1.5-1.5V64.1H58.3c-0.3,0-0.6-0.1-0.9-0.3c-0.3-0.2-0.5-0.4-0.6-0.7c-0.1-0.3-0.2-0.6-0.1-0.9   c0-0.3,0.2-0.6,0.4-0.9l20.2-25.2c0.2-0.3,0.5-0.5,0.9-0.6c0.3-0.1,0.7-0.1,1,0c0.3,0.1,0.6,0.3,0.8,0.6c0.2,0.3,0.3,0.7,0.3,1   l0,23.8h2.9c0.8,0,1.5,0.7,1.5,1.5c0,0.8-0.7,1.5-1.5,1.5h-2.9v10.6C80.2,75.6,79.5,76.2,78.7,76.2z M59.4,63.3L59.4,63.3   C59.4,63.3,59.4,63.3,59.4,63.3z M61.1,61.1h16.2V41L61.1,61.1z M79.6,38.1L79.6,38.1C79.6,38.1,79.6,38.1,79.6,38.1z M77.2,37.3   C77.2,37.3,77.2,37.3,77.2,37.3L77.2,37.3z"></path>	</g></g><g>	<g>		<path d="M36.4,101.5c-0.2,0-0.4,0-0.6-0.1c-8.9-3.9-16.3-10.2-21.6-18.3C8.8,75,6,65.6,6,55.9C6,28.4,28.7,6,56.6,6   c0.1,0,0.1,0,0.2,0c9.3,0,18.5,2.6,26.4,7.5c8,4.9,14.5,11.9,18.7,20.3c0.4,0.7,0.1,1.6-0.7,2c-0.7,0.4-1.6,0.1-2-0.7   c-4-7.9-10.1-14.5-17.6-19.1c-7.5-4.6-16.1-7-24.9-7c0,0-0.1,0-0.1,0C30.3,9,9,30,9,55.9c0,9.1,2.7,17.9,7.7,25.5   c5,7.6,12,13.6,20.3,17.2c0.8,0.3,1.1,1.2,0.8,2C37.5,101.2,37,101.5,36.4,101.5z"></path>	</g>	<g>		<path d="M56.6,14.4c-0.8,0-1.5-0.7-1.5-1.5V7.5c0-0.8,0.7-1.5,1.5-1.5s1.5,0.7,1.5,1.5v5.4C58.1,13.8,57.4,14.4,56.6,14.4z"></path>	</g>	<g>		<path d="M35.1,20.2c-0.5,0-1-0.3-1.3-0.8l-2.7-4.7c-0.4-0.7-0.2-1.6,0.5-2c0.7-0.4,1.6-0.2,2,0.5l2.7,4.7c0.4,0.7,0.2,1.6-0.5,2   C35.6,20.1,35.3,20.2,35.1,20.2z"></path>	</g>	<g>		<path d="M19.3,35.9c-0.3,0-0.5-0.1-0.7-0.2L13.9,33c-0.7-0.4-1-1.3-0.5-2c0.4-0.7,1.3-1,2-0.5l4.7,2.7c0.7,0.4,1,1.3,0.5,2   C20.4,35.7,19.8,35.9,19.3,35.9z"></path>	</g>	<g>		<path d="M8.2,57.4c-0.8,0-1.5-0.7-1.5-1.5s0.7-1.5,1.5-1.5l5.4,0c0,0,0,0,0,0c0.8,0,1.5,0.7,1.5,1.5s-0.7,1.5-1.5,1.5L8.2,57.4   C8.2,57.4,8.2,57.4,8.2,57.4z"></path>	</g>	<g>		<path d="M14.7,81.7c-0.5,0-1-0.3-1.3-0.7c-0.4-0.7-0.2-1.6,0.5-2l4.7-2.7c0.7-0.4,1.6-0.2,2,0.5c0.4,0.7,0.2,1.6-0.5,2l-4.7,2.7   C15.2,81.6,14.9,81.7,14.7,81.7z"></path>	</g>	<g>		<path d="M32.4,99.4c-0.3,0-0.5-0.1-0.7-0.2c-0.7-0.4-1-1.3-0.6-2l2.7-4.7c0.4-0.7,1.3-1,2-0.6c0.7,0.4,1,1.3,0.6,2l-2.7,4.7   C33.4,99.1,32.9,99.4,32.4,99.4z"></path>	</g>	<g>		<path d="M93.7,35.8c-0.5,0-1-0.3-1.3-0.7C92,34.4,92.3,33.4,93,33l4.7-2.7c0.7-0.4,1.6-0.2,2,0.5c0.4,0.7,0.2,1.6-0.5,2.1   l-4.7,2.7C94.3,35.8,94,35.8,93.7,35.8z"></path>	</g>	<g>		<path d="M78,20.1c-0.3,0-0.5-0.1-0.7-0.2c-0.7-0.4-1-1.3-0.6-2l2.7-4.7c0.4-0.7,1.3-1,2-0.6c0.7,0.4,1,1.3,0.6,2l-2.7,4.7   C79,19.9,78.5,20.1,78,20.1z"></path>	</g></g></svg>