<svg xmlns="http://www.w3.org/2000/svg" xmlns:xlink="http://www.w3.org/1999/xlink" x="0px" y="0px" viewBox="0 0 100 100" style="enable-background:new 0 0 100 100; fill:#88b520" xml:space="preserve">	<g>		<path d="M21.9,52.8c-0.2-0.1-0.4-0.2-0.6-0.3c-3.1-1.6-6.3-3.1-9.4-4.7c-2.2-1.1-4.2-2.5-5.9-4.3c-1.1-1.1-2-2.4-2.4-4  c-0.7-2.8,0.6-6.9,4.1-8.6c1.3-0.7,2.8-1,4.2-1.2c3.6-0.4,7,0.3,10.4,1.3c3.2,1,6.3,2.4,9.4,3.8c0.5,0.2,1,0.4,1.5,0.7  c0.1-0.5,0.2-1,0.3-1.5c1-4.8,2.1-9.6,3.9-14.2c1.1-2.9,2.4-5.7,4-8.5c1-1.8,2.3-3.5,4-4.9c1.3-1.1,2.8-1.8,4.6-2  c2.2-0.3,4.2,0.4,5.9,1.8c1.6,1.3,2.7,3,3.5,4.9c0.9,2.1,1.4,4.3,1.7,6.6c0.4,3.7,0.3,7.3-0.1,11c-0.3,2.4-0.6,4.9-0.9,7.3  c0,0,0,0.1,0,0.2c0.6-0.1,1.2-0.2,1.7-0.3c1-0.2,2-0.7,2.9-1.2c4-2,8.1-3.9,12.3-5.3c2.3-0.8,4.6-1.3,7-1.5  c1.2-0.1,2.3-0.2,3.5-0.2c2.3,0.1,4.5,0.8,6.3,2.3c2.2,1.8,3,4.1,2.7,6.9c-0.2,2.1-1,3.9-2.1,5.6c-1.9,3.2-4.5,5.8-7.4,8  c-4.2,3.3-9,5.5-14.1,7c-2,0.6-4,1.1-6,1.7c-0.1,0-0.2,0.1-0.3,0.1c0.1,0.7,0.3,1.3,0.6,1.9c0.3,0.5,0.7,1,1.1,1.5  c1.7,1.7,2.9,3.6,4.1,5.6c1.6,2.8,2.9,5.8,3.5,9c0.7,3.5,0.8,7-0.2,10.5c-1.2,4.3-4.2,6.9-8.5,7.8c-2.3,0.5-4.5,0-6.6-1.1  c-2.2-1.1-4.1-2.6-5.9-4.3c-3-2.9-5.3-6.3-7.2-9.9c-0.9-1.8-1.7-3.7-2.5-5.5c-0.3-0.7-0.5-1.6-0.8-2.3c-0.4-1.2-1.1-2.2-2-2.8  c-0.1,0.1-0.2,0.1-0.2,0.2c-1.7,1.7-3.4,3.4-5.2,5c-2.4,2.2-5,4-8,5.3c-2.6,1.1-5.3,1.6-8.1,1.5c-2.7-0.1-5.3-0.8-7.5-2.6  c-2.3-1.8-3.5-4.2-3.7-7.1c-0.2-2.9,0.6-5.5,2-8c1.3-2.3,3-4.2,4.8-5.9c0.9-0.9,1.9-1.7,2.9-2.3c0.9-0.6,1.7-1.4,2.2-2.4  C21.8,53,21.8,52.9,21.9,52.8z"></path>	</g></svg>