<svg xmlns="http://www.w3.org/2000/svg" xmlns:xlink="http://www.w3.org/1999/xlink" x="0px" y="0px" viewBox="0 0 100 100" style="enable-background:new 0 0 100 100;" xml:space="preserve">	<style type="text/css">	.glit-star-0{fill:#F0BA46;}	.glit-star-1{fill:#2F2F2F;}	.glit-star-2{fill:#E75D30;}	.glit-star-3{fill:#EEA7AF;}	.glit-star-4{fill:#5AAD65;}	</style>	<g>		<g class="wdt-glit-stars-1">			<path class="glit-star-0" d="M1.3,68.9c11.3,5.8,16,10.5,21.8,21.8c5.8-11.3,10.5-16,21.8-21.8c-11.3-5.8-16-10.5-21.8-21.8   C17.3,58.4,12.6,63.1,1.3,68.9z"></path>			<path class="glit-star-1" d="M0.9,69.6c4.6,2.4,9.1,5,12.8,8.7s6.3,8.2,8.7,12.8c0.3,0.5,1.2,0.5,1.4,0   c2.4-4.6,5-9.1,8.7-12.8s8.2-6.3,12.8-8.7c0.5-0.3,0.5-1.2,0-1.4c-4.6-2.4-9.1-5-12.8-8.7c-3.7-3.7-6.3-8.2-8.7-12.8   c-0.3-0.5-1.2-0.5-1.4,0c-2.4,4.6-5,9.1-8.7,12.8c-3.7,3.7-8.2,6.3-12.8,8.7c-1,0.5-0.1,1.9,0.8,1.4c3.8-2,7.5-4.1,10.8-6.8   c2.9-2.4,5.4-5.3,7.4-8.5c1.4-2.2,2.7-4.5,3.9-6.8h-1.4c2,3.8,4.1,7.5,6.8,10.8c2.4,2.9,5.3,5.4,8.5,7.4c2.2,1.4,4.5,2.7,6.8,3.9   v-1.4c-3.8,2-7.5,4.1-10.8,6.8c-2.9,2.4-5.4,5.3-7.4,8.5c-1.4,2.2-2.7,4.5-3.9,6.8h1.4c-2-3.8-4.1-7.5-6.8-10.8   c-2.4-2.9-5.3-5.4-8.5-7.4c-2.2-1.4-4.5-2.7-6.8-3.9C0.8,67.7,0,69.1,0.9,69.6z"></path>		</g>		<g class="wdt-glit-stars-2">			<path class="glit-star-2" d="M40.8,25.1c6.8,3.5,9.6,6.3,13.1,13.1c3.5-6.8,6.3-9.6,13.1-13.1c-6.8-3.5-9.6-6.3-13.1-13.1   C50.3,18.8,47.5,21.7,40.8,25.1z"></path>			<path class="glit-star-1" d="M40.3,25.8c2.7,1.4,5.4,3,7.6,5.2c2.2,2.2,3.8,4.9,5.2,7.6c0.3,0.5,1.2,0.5,1.4,0   c1.4-2.7,3-5.4,5.2-7.6c2.2-2.2,4.9-3.8,7.6-5.2c0.5-0.3,0.5-1.2,0-1.4c-2.7-1.4-5.4-3-7.6-5.2c-2.2-2.2-3.8-4.9-5.2-7.6   c-0.3-0.5-1.2-0.5-1.4,0c-1.4,2.7-3,5.4-5.2,7.6c-2.2,2.2-4.9,3.8-7.6,5.2c-1,0.5-0.1,1.9,0.8,1.4c2.9-1.5,5.7-3.1,7.9-5.4   c2.3-2.3,4-5.1,5.4-7.9h-1.4c1.5,2.9,3.1,5.7,5.4,7.9c2.3,2.3,5.1,4,7.9,5.4v-1.4c-2.9,1.5-5.7,3.1-7.9,5.4   c-2.3,2.3-4,5.1-5.4,7.9h1.4c-1.5-2.9-3.1-5.7-5.4-7.9c-2.3-2.3-5.1-4-7.9-5.4C40.2,23.9,39.4,25.4,40.3,25.8z"></path>		</g>		<g class="wdt-glit-stars-3">			<path class="glit-star-3" d="M83.7,16.8c3.9,2,5.5,3.6,7.5,7.5c2-3.9,3.6-5.5,7.5-7.5c-3.9-2-5.5-3.6-7.5-7.5   C89.2,13.2,87.6,14.8,83.7,16.8z"></path>			<path class="glit-star-1" d="M83.3,17.5c1.5,0.8,3.1,1.7,4.3,2.9c1.2,1.2,2.1,2.7,2.9,4.3c0.3,0.5,1.2,0.5,1.4,0   c0.8-1.5,1.7-3.1,2.9-4.3c1.2-1.2,2.7-2.1,4.3-2.9c0.5-0.3,0.5-1.2,0-1.4c-1.5-0.8-3.1-1.7-4.3-2.9c-1.2-1.2-2.1-2.7-2.9-4.3   c-0.3-0.5-1.2-0.5-1.4,0c-0.8,1.5-1.7,3.1-2.9,4.3c-1.2,1.2-2.7,2.1-4.3,2.9c-1,0.5-0.1,1.9,0.8,1.4c1.7-0.9,3.3-1.8,4.6-3.2   c1.3-1.3,2.3-3,3.2-4.6h-1.4c0.9,1.7,1.8,3.3,3.2,4.6c1.3,1.3,3,2.3,4.6,3.2v-1.4c-1.7,0.9-3.3,1.8-4.6,3.2   c-1.3,1.3-2.3,3-3.2,4.6h1.4c-0.9-1.7-1.8-3.3-3.2-4.6c-1.3-1.3-3-2.3-4.6-3.2C83.2,15.6,82.3,17,83.3,17.5z"></path>		</g>		<g class="wdt-glit-stars-4">			<path class="glit-star-4" d="M52,53.6c5.1,2.6,7.3,4.8,9.9,9.9c2.6-5.1,4.8-7.3,9.9-9.9c-5.1-2.6-7.3-4.8-9.9-9.9   C59.3,48.9,57.2,51,52,53.6z"></path>			<path class="glit-star-1" d="M51.6,54.4c2.1,1.1,4.1,2.2,5.7,3.9c1.6,1.6,2.8,3.7,3.9,5.7c0.3,0.5,1.2,0.5,1.4,0   c1.1-2.1,2.2-4.1,3.9-5.7c1.6-1.6,3.7-2.8,5.7-3.9c0.5-0.3,0.5-1.2,0-1.4c-2.1-1.1-4.1-2.2-5.7-3.9c-1.6-1.6-2.8-3.7-3.9-5.7   c-0.3-0.5-1.2-0.5-1.4,0c-1.1,2.1-2.2,4.1-3.9,5.7c-1.6,1.6-3.7,2.8-5.7,3.9c-1,0.5-0.1,1.9,0.8,1.4c2.2-1.1,4.3-2.4,6.1-4.1   c1.7-1.7,3-3.9,4.1-6.1h-1.4c1.1,2.2,2.4,4.3,4.1,6.1c1.7,1.7,3.9,3,6.1,4.1v-1.4c-2.2,1.1-4.3,2.4-6.1,4.1   c-1.7,1.7-3,3.9-4.1,6.1h1.4c-1.1-2.2-2.4-4.3-4.1-6.1c-1.7-1.7-3.9-3-6.1-4.1C51.5,52.4,50.7,53.9,51.6,54.4z"></path>		</g>	</g></svg>