<svg xmlns="http://www.w3.org/2000/svg" viewBox="0 0 83.5 95.8"><defs><style>.wdt-cus-strock-path-style{stroke:#F975A5;stroke-width:0.5px;stroke-dasharray:3 3;fill:#FCE8E6}</style></defs><g><g><path class="wdt-cus-strock-path-style" d="M33.25.25h6.8c2.3.1,4.7.1,7,.3,3,.2,6,.5,8.9.8,3.4.4,6.7,1,10.1,1.6a23.36,23.36,0,0,1,6.2,1.9,18.85,18.85,0,0,1,7.9,6.9,21.63,21.63,0,0,1,3,9.6c0,.4.1.8.1,1.2v3.9c-.1,2.4-.1,4.7-.2,7.1-.1,3.9-.3,7.7-.7,11.6-.2,2.6-.4,5.3-.5,7.9-.1,2.3-.3,4.7-.3,7q-.15,4,0,8.1a37.07,37.07,0,0,1-.2,5.8,22.41,22.41,0,0,1-2.7,8.4,17.11,17.11,0,0,1-6.8,6.8,31.58,31.58,0,0,1-6.6,2.7,71.89,71.89,0,0,1-13,2.9c-3.3.4-6.6.7-9.9.8h-6c-1.5-.1-2.9,0-4.4-.2a50.33,50.33,0,0,1-5.6-1A48.82,48.82,0,0,1,14.05,90a23.26,23.26,0,0,1-6.2-4.6,10.82,10.82,0,0,1-2.4-3.6A43.5,43.5,0,0,1,3.15,74,65,65,0,0,1,2,66.45c-.3-2.3-.5-4.5-.7-6.8-.1-1.3-.1-2.7-.2-4-.1-1.7-.3-3.4-.4-5.1-.2-2.8-.2-5.5-.4-8.3v-6.8a82.1,82.1,0,0,1,.5-8.4,51.61,51.61,0,0,1,1-6.7c.2-.8.4-1.7.6-2.5A22.29,22.29,0,0,1,5,10a16.52,16.52,0,0,1,12.4-8.5c2.7-.4,5.4-.6,8.1-.8,2.5-.2,4.9-.2,7.4-.3A.6.6,0,0,0,33.25.25Z"></path></g></g></svg>