<svg xmlns="http://www.w3.org/2000/svg" xmlns:xlink="http://www.w3.org/1999/xlink" x="0px" y="0px" viewBox="0 0 100 100" style="enable-background:new 0 0 100 100;" xml:space="preserve" version="1.1" transform="matrix(-1,0,0,1,0,0)">	<style type="text/css">	.wdt-spiral-line{fill:none;stroke:#fd4b38;stroke-width:1.5;stroke-miterlimit:10;}	.wdt-spiral-arrow{fill:none;stroke:#fd4b38;stroke-width:1.5;stroke-miterlimit:10;}	</style>	<path class="wdt-spiral-line" d="M66.5,3.8c2.8,2.1,7.2,6,10.7,12.2C79,19.2,81.9,24.6,82,32c0,3.1-0.3,12.8-7.6,20.1c-1.9,1.9-6.1,6.1-12.5,6.6 c-4.5,0.3-8-1.4-9.3-2.2c-5-2.8-7.6-6.5-8.2-8c-1.4-3.2-2.7-8-0.6-11.9c1.5-2.8,4.7-4.6,7.8-4.7c4.9-0.2,8.1,3.8,8.9,4.8 c4.6,5.8,3.1,13.7,2.3,18c-2.3,11.9-9.7,19.6-13.4,23.5c-3.1,3.2-10.5,10.5-22.2,13.5c-3,0.8-5.7,1.1-7.6,1.3"></path>	<path class="wdt-spiral-arrow" d="M26.3,87.3c-1.1,1.2-2.2,2.1-3.1,2.8c-0.6,0.5-3.2,2.5-4.4,2.9c-0.1,0-0.3,0.1-0.3,0.2c0,0.1,0.8,0.1,1.3,0.2 c1.4,0.2,2.5,0.7,3.3,1c0.5,0.3,1.3,0.7,2,1.3"></path></svg>