<svg xmlns="http://www.w3.org/2000/svg" xmlns:xlink="http://www.w3.org/1999/xlink" x="0px" y="0px" viewBox="0 0 100 100" style="enable-background:new 0 0 100 100;fill:#dd5540" xml:space="preserve">	<g>	<path d="M87.1,3.1c-4.6,0-8.3,3.6-8.3,8.2v8.2h-21c-0.8-2.4-3.1-4.1-5.8-4.1c-1.6,0-3,0.7-4.1,1.6  c-2.3-2.1-5.9-2.1-8.3,0c-1.2-1-2.5-1.6-4.1-1.6c-2.6,0-4.9,1.6-5.8,4.1h-8.7v-8.2c0-4.6-3.6-8.2-8.2-8.2c-4.6,0-8.3,3.6-8.3,8.2  v77.5c0,4.6,3.6,8.2,8.3,8.2c4.6,0,8.3-3.6,8.3-8.2V78.5h23.1c0.8,2.4,3.1,4.1,5.8,4.1c1.6,0,3-0.7,4.1-1.6c2.3,2.1,5.9,2.1,8.3,0  c1.2,1,2.5,1.6,4.1,1.6c2.6,0,5-1.6,5.8-4.1h6.6v10.3c0,4.6,3.6,8.2,8.3,8.2c4.6,0,8.3-3.6,8.3-8.2V11.3  C95.4,6.7,91.7,3.1,87.1,3.1L87.1,3.1z M66.2,56.1C65.3,53.7,63,52,60.4,52c-1.6,0-3,0.7-4.1,1.6c-1.2-1-2.5-1.6-4.1-1.6  c-2.6,0-5,1.6-5.8,4.1h-4.8c-0.8-2.4-3.1-4.1-5.8-4.1c-2.6,0-5,1.6-5.8,4.1h-8.9V41.8h23.1c0.8,2.4,3.1,4.1,5.8,4.1  c1.6,0,3-0.7,4.1-1.6c1.2,1,2.5,1.6,4.1,1.6c2.6,0,4.9-1.6,5.8-4.1h14.8V56H66.2V56.1z M62.4,58.1c0,1.1-1,2.1-2.1,2.1  c-1.1,0-2.2-1-2.2-2.1c0-1.1,1-2.1,2.2-2.1C61.4,56,62.4,56.9,62.4,58.1z M54.1,58.1c0,1.1-1,2.1-2.2,2.1s-2.1-1-2.1-2.1  c0-1.1,1-2.1,2.1-2.1C53.1,56.1,54.1,56.9,54.1,58.1z M37.6,58.1c0,1.1-1,2.1-2.1,2.1c-1.1,0-2.2-1-2.2-2.1c0-1.1,1-2.1,2.2-2.1  S37.6,56.9,37.6,58.1z M47.8,39.8c0-1.1,1-2,2.1-2s2.2,1,2.2,2c0,1.1-1,2.1-2.2,2.1S47.8,40.8,47.8,39.8z M56.2,39.8c0-1.1,1-2,2-2  c1,0,2.1,1,2.1,2c0,1.1-1,2.1-2.1,2.1C57.1,41.9,56.2,40.8,56.2,39.8z M52.1,19.4c1.2,0,2.2,1,2.2,2c0,1.1-1,2.1-2.2,2.1  c-1.2,0-2.2-1-2.2-2.1C50,20.2,51,19.4,52.1,19.4z M43.9,19.4c1.2,0,2.1,1,2.1,2c0,1.1-1,2.1-2.1,2.1c-1.1,0-2.2-1-2.2-2.1  C41.7,20.2,42.7,19.4,43.9,19.4z M35.6,19.4c1.2,0,2.2,1,2.2,2c0,1.1-1,2.1-2.2,2.1c-1.2,0-2.1-1-2.1-2.1  C33.5,20.2,34.5,19.4,35.6,19.4z M29.7,23.5c0.8,2.4,3.1,4.1,5.8,4.1c1.6,0,3-0.7,4.1-1.6c2.3,2.1,5.9,2.1,8.3,0  c1.2,1,2.5,1.6,4.1,1.6c2.6,0,5-1.6,5.8-4.1h21.1v14.2H64c-0.8-2.4-3.1-4.1-5.8-4.1c-1.6,0-3,0.7-4.1,1.6c-1.2-1-2.5-1.6-4.1-1.6  c-2.6,0-4.9,1.6-5.8,4.1H21.1V23.3h8.6L29.7,23.5L29.7,23.5z M17,88.7c0,2.3-1.8,4.1-4.1,4.1c-2.3,0-4.1-1.8-4.1-4.1V11.3  c0-2.3,1.8-4.1,4.1-4.1c2.3,0,4.1,1.8,4.1,4.1V88.7z M50,78.5c-1.2,0-2.1-1-2.1-2.1s1-2.1,2.1-2.1s2.2,1,2.2,2.1S51.1,78.5,50,78.5  z M58.2,78.5c-1.2,0-2-1-2-2.1s1-2.1,2-2.1c1,0,2.1,1,2.1,2.1C60.2,77.5,59.4,78.5,58.2,78.5z M66.5,78.5c-1.2,0-2.2-1-2.2-2.1  s1-2.1,2.2-2.1c1.2,0,2.2,1,2.2,2.1S67.6,78.5,66.5,78.5z M72.2,74.4c-0.8-2.4-3.1-4.1-5.8-4.1c-1.6,0-3,0.7-4.1,1.6  c-2.3-2.1-5.9-2.1-8.3,0c-1.2-1-2.5-1.6-4.1-1.6c-2.6,0-4.9,1.6-5.8,4.1H21.1V60.2h8.6c0.8,2.4,3.1,4.1,5.8,4.1  c2.6,0,4.9-1.6,5.8-4.1H46c0.8,2.4,3.1,4.1,5.8,4.1c1.6,0,3-0.7,4.1-1.6c1.2,1,2.5,1.6,4.1,1.6c2.6,0,5-1.6,5.8-4.1h13v14.2H72.2  L72.2,74.4z M91.2,88.7c0,2.3-1.8,4.1-4.1,4.1c-2.3,0-4.1-1.8-4.1-4.1V11.3c0-2.3,1.8-4.1,4.1-4.1c2.3,0,4.1,1.8,4.1,4.1V88.7z"></path>	<path d="M72.6,13.2c1.2,0,2.1-1,2.1-2.1S73.7,9,72.6,9c-1.1,0-2.2,1-2.2,2.1C70.6,12.2,71.6,13.2,72.6,13.2z"></path>	<path d="M50,9.2c1.2,0,2.2-1,2.2-2.1c0-1.1-1-2.1-2.2-2.1c-1.2,0-2.1,1-2.1,2.1C47.9,8.2,48.9,9.2,50,9.2z"></path>	<path d="M29.4,84.7c-1.2,0-2.2,1-2.2,2.1c0,1.1,1,2.1,2.2,2.1s2.2-1,2.2-2.1C31.4,85.5,30.5,84.7,29.4,84.7z"></path>	<path d="M43.9,88.7c-1.2,0-2.2,1-2.2,2.1c0,1.1,1,2.1,2.2,2.1c1.2,0,2-1,2-2.1C45.9,89.5,44.9,88.7,43.9,88.7z"></path>	<path d="M66.5,86.6c-1.2,0-2.2,1-2.2,2.1c0,1.1,1,2.1,2.2,2.1c1.2,0,2.2-1,2.2-2.1C68.6,87.6,67.6,86.6,66.5,86.6  z"></path></g></svg>