<svg xmlns="http://www.w3.org/2000/svg" xmlns:xlink="http://www.w3.org/1999/xlink" x="0px" y="0px" viewBox="0 0 100 100" style="enable-background:new 0 0 100 100;fill:#ffff" xml:space="preserve">	<g>		<path d="M89,70.6V31.8c0-0.8-0.5-1.6-1.3-1.8L46,13.8c-0.5-0.2-1-0.2-1.5,0L4.1,30c-0.8,0.3-1.3,1-1.3,1.8  c0,0.8,0.5,1.6,1.2,1.9l17.3,8.1v24.5c0,1.1,1,2.1,2.1,2.1h45.2c1.2,0,2-1,2-2.1v-25l14.5-6.5v35.7c-3.6,0.8-6.2,4.1-6.2,7.8v10.2  c0,1.1,1,2.1,2.1,2.1h12.3c1.2,0,2.1-1,2.1-2.1V78.4C95.1,74.7,92.5,71.4,89,70.6z M45.2,17.7l30.9,12H51.6  c-0.8-2.4-3.1-4.1-5.8-4.1c-3.4,0-6.2,2.8-6.2,6.2s2.8,6.2,6.2,6.2c2.6,0,4.9-1.6,5.8-4.1h25.8L45,48.5L9.8,31.8L45.2,17.7z   M47.8,31.8c0,1.1-1,2.1-2,2.1c-1.2,0-2.1-1-2.1-2.1s1-2.1,2.1-2.1C47,29.7,47.8,30.7,47.8,31.8z M66.4,64.3H25.3V43.5l19.1,8.9  c0.5,0.3,1.2,0.3,1.8,0l20.4-9.3v21.1H66.4L66.4,64.3z M91,86.6h-8.2v-8.1c0-2.3,1.8-4.1,4.1-4.1c2.3,0,4.1,1.8,4.1,4.1V86.6z"></path>		<path d="M11,70.3c-3.4,0-6.1,2.8-6.1,6.2s2.8,6.2,6.1,6.2c3.4,0,6.2-2.8,6.2-6.2C17,73.1,14.3,70.3,11,70.3z   M11,78.4c-1.2,0-2.1-1-2.1-2.1c0-1.1,1-2.1,2.1-2.1c1.1,0,2.1,1,2.1,2.1C12.9,77.5,11.9,78.4,11,78.4z"></path>		<path d="M55,84.6c-2.8,0-5.1,2.3-5.1,5c0,2.8,2.3,5,5.1,5c2.8,0,5.1-2.3,5.1-5C60.1,86.9,57.8,84.6,55,84.6z   M55,90.6c-0.5,0-1-0.5-1-1c0-0.5,0.5-1,1-1c0.5,0,1,0.5,1,1C56.2,90.1,55.7,90.6,55,90.6z"></path>		<path d="M90,19.6c3.9,0,7.2-3.2,7.2-7.1S94,5.3,90,5.3s-7.2,3.2-7.2,7.1S86.1,19.6,90,19.6z M90,9.4  c1.6,0,3.1,1.3,3.1,3.1c0,1.6-1.3,3.1-3.1,3.1s-3.1-1.5-3.1-3.1C86.9,10.7,88.2,9.4,90,9.4z"></path>		<path d="M19,17.5c1.2,0,2.1-1,2.1-2.1c0-1.1-1-1.9-2.1-1.9s-2,1-2,1.9C17,16.5,18,17.5,19,17.5z"></path>		<path d="M12.9,56.2c1.2,0,2.1-1,2.1-2.1c0-1.1-1-2.1-2.1-2.1c-1.1,0-2.1,1-2.1,2.1C11,55.2,11.8,56.2,12.9,56.2z"></path>		<path d="M35.6,80.5c-1.2,0-2.1,1-2.1,2.1s1,2.1,2.1,2.1c1.1,0,2.1-1,2.1-2.1C37.6,81.4,36.6,80.5,35.6,80.5z"></path>		<path d="M76.7,54.1c-1.2,0-2.1,1-2.1,2.1c0,1.1,1,2.1,2.1,2.1c1.2,0,2.1-1,2.1-2.1C78.7,55,77.7,54.1,76.7,54.1z"></path>		<path d="M70.5,13.4c1.2,0,2.1-1,2.1-2.1c0-1.1-1-2.1-2.1-2.1c-1.2,0-2,1-2,2.1C68.5,12.5,69.3,13.4,70.5,13.4z"></path>	</g></svg>