<svg xmlns="http://www.w3.org/2000/svg" xmlns:xlink="http://www.w3.org/1999/xlink" x="0px" y="0px" viewBox="0 0 100 100" style="enable-background:new 0 0 100 100;fill:#ffffff" xml:space="preserve">	<g>		<path d="M68.4,60.8c-10,0-9.8,0-10.2,0.2h-0.2c0,0-0.2,0-0.2,0.2l-0.2,0.2l-0.2,0.2c-0.3,0.3,0-0.2-7.4,10.8  c-7.4-11-7-10.5-7.4-10.8l-0.2-0.2l-0.2-0.2c-0.2,0,0,0-0.2-0.2h-0.5c-0.2,0,0.7,0-9.8,0c-10.5,0-19,8.4-19,18.9v14  c0,1.2,1.1,2.3,2.1,2.3h70.2c1.2,0,2.3-1,2.3-2.3v-14C87.3,69.2,78.8,60.8,68.4,60.8L68.4,60.8z M82.8,91.4h-6.7v-11  c0-1.2-1.1-2.3-2.3-2.3s-2.3,1-2.3,2.3v10.8H28.1V80.4c0-1.2-1.1-2.3-2.3-2.3c-1.2,0-2.3,1-2.3,2.3v10.8H17V79.5  c0-8,6.5-14.5,14.6-14.5H40c8.6,12.9,8.1,12.1,8.2,12.4c0.1,0.1,0.2,0.2,0.3,0.3h0.2c0.5,0.4,1.2,0.4,1.2,0.4  c0.3,0,0.9-0.2,1.2-0.4h0.2c0.1-0.1,0.2-0.2,0.3-0.3c0.2-0.2-0.3,0.5,8.2-12.4h8.4C76.5,65,83,71.5,83,79.5L82.8,91.4L82.8,91.4z"></path>		<path d="M21.4,58.5h13.2c1.2,0,2.3-1,2.3-2.3c0-1.2-1.1-2.1-2.3-2.1h-7c3.2-3.1,5.6-7,7.4-10.5  c1.4,8.6,7.5,14.9,15.1,14.9c7.5,0,13.7-6.5,15.1-14.9c1.8,3.7,4.2,7.3,7.4,10.5h-7c-1.2,0-2.3,1-2.3,2.1c0,1.2,1.1,2.3,2.3,2.3  h13.2c1.1,0,1.8-0.7,2.1-1.6c0.3-0.9-0.2-1.9-0.9-2.4c-10.7-6.8-14.6-22.7-14.9-24.6v-8l8.6-2.3c1.1-0.3,1.6-1.2,1.6-2.1  c0-1-0.7-1.9-1.8-2.1L50,10.5h-0.9l-22.5,4.7c-1.1,0.2-1.8,1-1.8,2.1c0,1,0.7,1.9,1.6,2.1l8.6,2.4v8c-0.5,1.9-4.4,17.8-14.9,24.6  c-0.9,0.5-1.2,1.6-0.9,2.4C19.6,57.8,20.5,58.5,21.4,58.5L21.4,58.5z M59.3,32.3c0.3,0.7,0.5,1.2,0.9,1.9c-3.2,0.7-6.5-0.2-8.4-1.9  H59.3z M40.2,34.6H40c0.2-0.7,0.5-1.4,0.9-2.1h5.4C44.8,33.7,42.5,34.6,40.2,34.6L40.2,34.6z M50,54.2c-6,0-10.9-6.3-10.9-14.2v-1  c3.9,0.3,7.4-1,9.8-3c3.2,2.8,7.9,3.7,11.9,2.8v1.4C60.9,47.9,56,54.2,50,54.2L50,54.2z M49.7,14.8l13.7,2.8l-0.9,0.2  c-0.2,0-0.5,0.2-0.7,0.2l-11.9,3.1l-13.2-3.7L49.7,14.8z M49.1,25.7c0.3,0.2,0.7,0.2,1.2,0l10.2-2.8V28H39.8v-4.9L49.1,25.7z"></path>		<path d="M14.9,52.1c0-3.7-3-6.6-6.5-6.6c-3.7,0-6.7,3-6.7,6.6c0,3.7,3,6.5,6.7,6.5C12.1,58.5,14.9,55.6,14.9,52.1z   M8.4,54.2c-1.2,0-2.3-1-2.3-2.3c0-1.2,1.1-2.3,2.3-2.3c1.2,0,2.3,1,2.3,2.3C10.7,53.1,9.5,54.2,8.4,54.2z"></path>		<path d="M11.6,19.2c3,0,5.4-2.4,5.4-5.4c0-3-2.5-5.4-5.4-5.4s-5.4,2.4-5.4,5.4C6.1,16.8,8.6,19.2,11.6,19.2z   M11.6,12.7c0.5,0,1.1,0.5,1.1,1c0,0.5-0.5,1-1.1,1c-0.5,0-1.1-0.5-1.1-1C10.5,13.1,11,12.7,11.6,12.7z"></path>		<path d="M78.5,29c0,4.2,3.5,7.7,7.7,7.7c4.2,0,7.7-3.5,7.7-7.7c0-4.2-3.5-7.7-7.7-7.7C82,21.5,78.5,24.8,78.5,29z   M86.2,25.7c1.8,0,3.3,1.4,3.3,3.3c0,1.7-1.4,3.3-3.3,3.3c-1.9,0-3.3-1.4-3.3-3.3C82.9,27.3,84.4,25.7,86.2,25.7z"></path>		<path d="M87.9,50.5c-0.9,0.9-0.9,2.3,0,3.1c0.9,0.9,2.3,0.9,3.2,0c0.9-0.9,0.9-2.3,0-3.1  C90.2,49.6,88.8,49.6,87.9,50.5z"></path>		<path d="M97.6,74.5c-0.9-0.9-2.3-0.9-3.2,0c-0.9,0.9-0.9,2.3,0,3.1c0.9,0.9,2.3,0.9,3.2,0  C98.5,76.7,98.5,75.3,97.6,74.5z"></path>		<path d="M4.5,72.4c-0.9,0.9-0.9,2.3,0,3.1c0.9,0.9,2.3,0.9,3.2,0c0.9-0.9,0.9-2.3,0-3.1C6.8,71.5,5.4,71.5,4.5,72.4z  "></path>		<path d="M17,30.1c1.3,0,2.3,1,2.3,2.3c0,1.3-1,2.3-2.3,2.3c-1.3,0-2.3-1-2.3-2.3C14.7,31.1,15.7,30.1,17,30.1z"></path>		<path d="M80.7,8.2c1.3,0,2.3,1,2.3,2.3c0,1.3-1,2.3-2.3,2.3c-1.3,0-2.3-1-2.3-2.3C78.4,9.2,79.5,8.2,80.7,8.2z"></path>		<path d="M36.1,7.7c0.9-0.9,0.9-2.3,0-3.1c-0.9-0.9-2.3-0.9-3.2,0c-0.9,0.9-0.9,2.3,0,3.1C34,8.6,35.3,8.6,36.1,7.7z  "></path>	</g></svg>