<svg xmlns="http://www.w3.org/2000/svg" xmlns:xlink="http://www.w3.org/1999/xlink" x="0px" y="0px" viewBox="0 0 599 273" style="enable-background:new 0 0 599 273;fill:#88b520" xml:space="preserve">	<style type="text/css">	.wdt-cloud-0{fill:#88b520;}	.wdt-cloud-1{fill:none;stroke:#ffffff;stroke-miterlimit:10;}	.wdt-cloud-2{fill:none;stroke:#ffffff;stroke-miterlimit:10;stroke-dasharray:9.9439,3.9776;}	.wdt-cloud-3{fill:none;stroke:#ffffff;stroke-miterlimit:10;stroke-dasharray:9.5581,3.8232;}	.wdt-cloud-4{fill:none;stroke:#ffffff;stroke-miterlimit:10;stroke-dasharray:10.6718,4.2687;}	.wdt-cloud-5{fill:none;stroke:#ffffff;stroke-miterlimit:10;stroke-dasharray:10.0556,4.0223;}	.wdt-cloud-6{fill:none;stroke:#ffffff;stroke-miterlimit:10;stroke-dasharray:9.6929,3.8771;}	.wdt-cloud-7{fill:none;stroke:#ffffff;stroke-miterlimit:10;stroke-dasharray:9.7215,3.8886;}	.wdt-cloud-8{fill:none;stroke:#ffffff;stroke-miterlimit:10;stroke-dasharray:10.1351,4.0541;}	.wdt-cloud-9{fill:none;stroke:#ffffff;stroke-miterlimit:10;stroke-dasharray:10.5385,4.2154;}	.wdt-cloud-10{fill:none;stroke:#ffffff;stroke-miterlimit:10;stroke-dasharray:9.4251,3.77;}	.wdt-cloud-11{fill:none;stroke:#ffffff;stroke-miterlimit:10;stroke-dasharray:9.6015,3.8406;}	.wdt-cloud-12{fill:none;stroke:#ffffff;stroke-miterlimit:10;stroke-dasharray:9.7482,3.8993;}	.wdt-cloud-13{fill:none;stroke:#ffffff;stroke-miterlimit:10;stroke-dasharray:9.7825,3.913;}	</style>	<path class="wdt-cloud-0" d="M599,151.8c0,21.4-15.9,38.7-35.4,38.7c-5.7,0-11-1.5-15.8-4.1c-3.9,16.7-17.8,29.1-34.3,29.1 c-9.1,0-17.5-3.8-23.7-10c-6.4,35.6-35.1,62.4-69.5,62.4c-24.9,0-46.7-14-59.4-35.2c-11.9,9.6-26.5,15.2-42.4,15.2 c-11.2,0-21.9-2.8-31.3-7.9c-13,17-32.5,27.9-54.4,27.9c-24.9,0-46.7-14-59.4-35.2c-11.9,9.6-26.5,15.2-42.4,15.2 c-34.1,0-62.6-26.1-69.8-61c-5.8,3.4-12.5,5.3-19.6,5.3C18.6,192.3,0,172,0,146.8c0-25.1,18.6-45.5,41.6-45.5c6.7,0,13,1.7,18.6,4.8 c-0.5-3.4-0.8-6.9-0.8-10.5c0-35.6,26.4-64.5,59-64.5c10.6,0,20.4,3,29,8.4C156.7,16.3,177.9,0,202.6,0c18.7,0,35.3,9.3,46.4,23.8 c11.9-8.8,26.2-13.9,41.6-13.9c18.8,0,35.9,7.6,49,20.1C350.3,12,368.9,0,390.1,0c18.7,0,35.3,9.3,46.4,23.8 c11.9-8.8,26.2-13.9,41.6-13.9c41.1,0,74.4,36.5,74.4,81.4c0,8.8-1.3,17.3-3.7,25.2c4.5-2.3,9.5-3.5,14.7-3.5 C583.1,113.1,599,130.4,599,151.8z"></path>	<g class="wdt-stroke-path-style">		<path class="wdt-cloud-0" d="M583.5,149.5c0,19.2-15,34.7-33.6,34.7c-5.4,0-10.4-1.3-15-3.7c-3.7,15-16.9,26-32.5,26  c-8.7,0-16.6-3.4-22.5-8.9c-6.1,31.9-33.3,55.9-65.9,55.9c-23.6,0-44.3-12.6-56.3-31.6c-11.3,8.6-25.2,13.6-40.2,13.6  c-10.6,0-20.7-2.5-29.7-7.1c-12.3,15.3-30.8,25-51.6,25c-23.6,0-44.3-12.6-56.3-31.6c-11.3,8.6-25.2,13.6-40.2,13.6  c-32.3,0-59.4-23.4-66.2-54.6c-5.5,3.1-11.9,4.8-18.5,4.8c-21.8,0-39.4-18.2-39.4-40.7c0-22.5,17.6-40.7,39.4-40.7  c6.3,0,12.3,1.6,17.6,4.3c-0.5-3.1-0.7-6.2-0.7-9.4c0-31.9,25-57.8,55.9-57.8c10,0,19.4,2.7,27.5,7.5c8.8-20.8,29-35.4,52.4-35.4  c17.7,0,33.5,8.3,44,21.3c11.3-7.8,24.8-12.4,39.4-12.4c17.8,0,34,6.8,46.4,18c10.2-16.2,27.8-26.9,47.9-26.9  c17.7,0,33.5,8.3,44,21.3c11.3-7.8,24.8-12.4,39.4-12.4c39,0,70.6,32.6,70.6,72.9c0,7.9-1.2,15.5-3.5,22.6c4.2-2,9-3.2,13.9-3.2  C568.5,114.8,583.5,130.3,583.5,149.5z"></path>		<g>			<path class="wdt-cloud-1" d="M539.5,182.4c-1.6-0.5-3.1-1.2-4.6-2c-0.4,1.6-0.9,3.2-1.5,4.8"></path>			<path class="wdt-cloud-2" d="M531.7,188.8c-5.8,10.6-16.7,17.7-29.3,17.7c-6.2,0-12-1.7-16.9-4.7"></path>			<path class="wdt-cloud-1" d="M483.8,200.7c-1.4-0.9-2.7-2-3.9-3.1c-0.3,1.6-0.7,3.3-1.1,4.9"></path>			<path class="wdt-cloud-3" d="M477.7,206.2c-8.9,27.5-34.1,47.3-63.7,47.3c-21.2,0-40-10.1-52.3-25.9"></path>			<path class="wdt-cloud-1" d="M360.6,226.1c-1-1.3-1.9-2.7-2.8-4.1c-1.3,1-2.7,2-4.1,2.9"></path>			<path class="wdt-cloud-4" d="M350,227c-9.6,5.5-20.7,8.6-32.5,8.6c-8.1,0-15.9-1.5-23.1-4.2"></path>			<path class="wdt-cloud-1" d="M292.4,230.6c-1.5-0.6-3.1-1.3-4.5-2.1c-1,1.3-2.1,2.6-3.3,3.8"></path>			<path class="wdt-cloud-5" d="M281.7,235.2c-11.9,11.4-27.9,18.3-45.5,18.3c-21.1,0-40-10.1-52.3-25.8"></path>			<path class="wdt-cloud-1" d="M182.8,226.1c-1-1.3-1.9-2.7-2.8-4.1c-1.3,1-2.7,2-4.1,2.9"></path>			<path class="wdt-cloud-6" d="M172.5,226.8c-9.7,5.6-20.9,8.7-32.8,8.7c-30,0-55.4-20.1-64.4-47.9"></path>			<path class="wdt-cloud-1" d="M74.7,185.8c-0.5-1.6-0.9-3.2-1.2-4.8c-1.5,0.8-3,1.5-4.5,2.1"></path>			<path class="wdt-cloud-7" d="M65.3,184.3c-3.3,0.9-6.8,1.4-10.3,1.4c-21.8,0-39.4-18.2-39.4-40.7c0-22.5,17.6-40.7,39.4-40.7   c3.9,0,7.6,0.6,11.2,1.7"></path>			<path class="wdt-cloud-1" d="M68,106.6c1.6,0.6,3.1,1.2,4.6,2c-0.3-1.6-0.5-3.3-0.6-5"></path>			<path class="wdt-cloud-8" d="M71.8,99.5c0-0.1,0-0.3,0-0.4c0-31.9,25-57.8,55.9-57.8c7.5,0,14.7,1.5,21.2,4.3"></path>			<path class="wdt-cloud-1" d="M150.8,46.5c1.5,0.7,3,1.5,4.4,2.3c0.7-1.5,1.4-3,2.1-4.5"></path>			<path class="wdt-cloud-9" d="M159.5,40.7c10.2-16.4,27.9-27.2,48.1-27.2c15.2,0,29,6.1,39.2,16.1"></path>			<path class="wdt-cloud-1" d="M248.3,31.1c1.1,1.2,2.2,2.5,3.3,3.8c1.4-1,2.8-1.9,4.2-2.7"></path>			<path class="wdt-cloud-10" d="M259.1,30.3c9.6-5,20.4-7.9,32-7.9c15.3,0,29.5,5.1,41.1,13.6"></path>			<path class="wdt-cloud-1" d="M333.7,37.2c1.3,1,2.6,2.1,3.8,3.2c0.9-1.4,1.8-2.8,2.8-4.1"></path>			<path class="wdt-cloud-11" d="M342.7,33.3c10.5-12.1,25.7-19.8,42.7-19.8c15.2,0,29.1,6.2,39.3,16.2"></path>			<path class="wdt-cloud-1" d="M426.1,31.1c1.1,1.2,2.2,2.5,3.3,3.8c1.4-1,2.8-1.9,4.2-2.7"></path>			<path class="wdt-cloud-12" d="M437,30.2c9.6-5,20.4-7.8,31.8-7.8c39,0,70.6,32.6,70.6,72.9c0,5.5-0.6,10.8-1.7,15.9"></path>			<path class="wdt-cloud-1" d="M537.3,113.1c-0.4,1.6-0.8,3.2-1.3,4.8c1.5-0.7,3.1-1.3,4.7-1.8"></path>			<path class="wdt-cloud-13" d="M544.4,115.2c1.8-0.3,3.6-0.5,5.5-0.5c18.5,0,33.6,15.5,33.6,34.7c0,19.2-15,34.7-33.6,34.7   c-2.9,0-5.8-0.4-8.5-1.1"></path>		</g>	</g>	<path class="wdt-cloud-0" d="M148,239h-32v34L148,239z"></path></svg>