<svg xmlns="http://www.w3.org/2000/svg" xmlns:xlink="http://www.w3.org/1999/xlink" x="0px" y="0px" viewBox="0 0 100 100" style="enable-background:new 0 0 100 100;fill:#dd5540" xml:space="preserve">	<g>		<path d="M50,38.2c1.2-0.3,1.7-1.5,1.5-2.5C51.2,34.5,50,34,49,34.2l-15,4.2c-1.2,0.3-1.7,1.5-1.5,2.5  c0.3,1.2,1.5,1.7,2.6,1.5L50,38.2z"></path>		<path d="M13.2,78.3c3.6,0,6.3-2.9,6.3-6.4c0-3.5-2.9-6.2-6.3-6.2c-3.6,0-6.5,2.9-6.5,6.2  C6.9,75.4,9.7,78.3,13.2,78.3z M13.2,69.9c1.2,0,2.2,1,2.2,2.2c0,1.2-1,2.2-2.2,2.2c-1.2,0-2.2-1-2.2-2.2  C11.2,70.7,12,69.9,13.2,69.9z"></path>		<path d="M19.7,17.2c3.6,0,6.3-2.9,6.3-6.2c0-3.5-2.9-6.4-6.3-6.4c-3.6,0-6.3,2.9-6.3,6.4  C13.2,14.3,16.1,17.2,19.7,17.2z M19.7,8.8c1.2,0,2,1,2,2.2c0,1.2-1,2-2,2c-1.2,0-2.2-1-2.2-2C17.5,9.8,18.5,8.8,19.7,8.8z"></path>		<path d="M84.6,55.1c-4.1,0-7.5,3.4-7.5,7.4s3.4,7.4,7.5,7.4s7.5-3.4,7.5-7.4S88.7,55.1,84.6,55.1z M84.6,65.7  c-1.7,0-3.2-1.3-3.2-3.2c0-1.7,1.4-3.2,3.2-3.2c1.7,0,3.2,1.3,3.2,3.2C87.8,64.1,86.3,65.7,84.6,65.7z"></path>		<path d="M96.3,74.1c-1.2,0-2.2,1-2.2,2.2c0,1.2,1,2.2,2.2,2.2c1.2,0,2-1,2-2.2C98.4,74.9,97.5,74.1,96.3,74.1z"></path>		<path d="M62.3,67.7c0,1.2,1,2,2.2,2c1.2,0,2.2-1,2.2-2c0-1.2-1-2.2-2.2-2.2C63.1,65.7,62.3,66.5,62.3,67.7z"></path>		<path d="M55.8,36.2c1.2,0,2.2-1,2.2-2.2c0-1.2-1-2.2-2.2-2.2c-1.2,0-2,1-2,2.2C53.8,35.2,54.6,36.2,55.8,36.2z"></path>		<path d="M9,82.5c-1.2,0-2.2,1-2.2,2.2s1,2.2,2.2,2.2c1.2,0,2.2-1,2.2-2.2C11.2,83.3,10.2,82.5,9,82.5z"></path>		<path d="M51.5,13c1.2,0,2.2-1,2.2-2c0-1.2-1-2.2-2.2-2.2c-1.2,0-2.2,1-2.2,2.2C49.5,12.1,50.4,13,51.5,13z"></path>		<path d="M11.2,27.8c1.2,0,2.2-1,2.2-2.2c0-1.2-1-2.2-2.2-2.2S9,24.4,9,25.6C9,26.8,10,27.8,11.2,27.8z"></path>		<path d="M77.1,90.9h-4.6c0.2-0.7,0.3-1.3,0.3-2.2c0-3.5-2.9-6.4-6.3-6.4h-9.2l-9-21.5c3.4-1.2,5.8-4.5,5.5-8.4  l18.6-5.1c1.9,3.2,5.8,4.9,9.7,3.9c4.6-1.2,7.2-5.9,6-10.4l-0.7-2.2l0.3-0.2c5.1-1.3,8-6.6,6.7-11.6c-1.4-5.1-6.7-7.9-11.8-6.6  l-0.3,0.2l-0.7-2.2c-1.2-4.5-6-7.1-10.6-5.9c-3.8,1-6.3,4.5-6.3,8.2L48,25.1c-1.2-4.5-6-7.1-10.6-5.9c-4.6,1.2-7.2,5.9-6,10.4  l-10.2,2.9c-1.2,0.3-1.9,1.5-1.5,2.5l0.5,2L8,40.4c-1.2,0.3-1.9,1.5-1.5,2.5l0.5,2l-3.8,1.7C2,47,1.4,48.1,1.7,49.2l1.7,6.1  c0.3,1.2,1.5,1.9,2.6,1.5l4.1-1.2l0.5,2c0.3,1.2,1.5,1.9,2.6,1.5l12.3-3.4l0.5,2c0.3,1.2,1.5,1.9,2.6,1.5l8.7-2.4  c1,1.9,2.6,3.4,4.6,4l-9,21.5h-9.2c-3.6,0-6.3,2.9-6.3,6.4c0,0.7,0.2,1.5,0.3,2.2H13c-1.2,0-2.2,1-2.2,2.2c0,1.2,1,2.2,2.2,2.2  h63.9c1.2,0,2.2-1,2.2-2.2C79.4,91.7,78.3,90.9,77.1,90.9L77.1,90.9z M52.6,82.5h-5.3V69.9L52.6,82.5z M87.5,25.1  c1.2,0.7,2,1.9,2.4,3c0.9,2.7-0.9,5.6-3.6,6.4L86,34.7l-2.7-9.9C83.4,24.6,85.3,23.9,87.5,25.1L87.5,25.1z M73.2,16.5  c1.9,0,3.6,1.2,4.1,3c3.1,10.8,3.8,13.1,6.3,22.2c0.7,2.2-0.7,4.5-2.9,5.2c-2.2,0.7-4.6-0.7-5.3-2.9l-6.3-22.2  C68.4,19.2,70.4,16.5,73.2,16.5z M39.8,23.6c1.9,0,3.6,1.2,4.1,3l-8.2,2.2C35,26.3,37.1,23.6,39.8,23.6z M9,51.7l-2,0.5l-0.5-2  l2-0.5L9,51.7z M24.5,51.7l-10.2,2.9l-2.9-10.1l10.2-2.9C22.1,42.9,24.1,50.3,24.5,51.7z M25.1,38.4l-0.5-2  c13.1-3.5,27.8-7.6,41-11.3l5.1,18.2l-18.4,5.1c-1.5-2.4-4.1-3.9-7.2-3.9c-4.6,0-8.4,3.7-8.5,8.1l-7,1.9  C29.1,52.4,25.8,40.7,25.1,38.4L25.1,38.4z M41,53c0-2.4,1.9-4.2,4.3-4.2c2.4,0,4.3,1.9,4.3,4.2c0,2.4-1.9,4.2-4.3,4.2  C42.9,57.2,41,55.4,41,53z M43,69.9v12.6h-5.3L43,69.9z M23.9,90.9c-1.2,0-2-1-2-2.2s1-2.2,2-2.2h42.6c1.2,0,2.2,1,2.2,2.2  s-1,2.2-2.2,2.2H23.9z"></path>	</g></svg>