<svg xmlns="http://www.w3.org/2000/svg" xmlns:xlink="http://www.w3.org/1999/xlink" x="0px" y="0px" viewBox="0 0 100 100" style="enable-background:new 0 0 100 100;" xml:space="preserve">	<style type="text/css">	.wdt-bloby-01{fill:#F26522;}	.wdt-bloby-11{fill:#ffff}	</style>	<g>		<path class="wdt-bloby-01 wdt-str-spin" d="M33.3,95.3l0.2,0c1.2,0.3,2.3,0.5,3.5,0.5l0,0c0,0,0,0,0,0c6.2,0.6,18.3-3,18.3-3l0.4-0.2c0,0,3-1.3,4.4-1.9  c8.9-4.4,17.1-10.3,24.3-17.2c6.6-6.4,14.2-14.9,13.3-24.8c-0.5-4.6-3-8.7-6-12.2c-3.5-4.1-7.2-8.1-10.9-12.1  C77.4,20.6,74,16.6,70.3,13C66.9,9.8,63,6.9,58.6,5.2C54.2,3.6,49.5,3.6,45,5c-4.6,1.4-8.7,3.9-12.7,6.6C24.7,17,16.8,23,11.4,30.8  c-0.8,1.2-1.6,2.4-2.3,3.7c-3.9,5-6.3,11.1-6.8,17.4C1.5,61,4.6,70,9.7,77.6c5.3,7.8,13,14.7,22.2,17.4c0.3,0.1,0.6,0.2,1,0.3  C32.9,95.2,33.2,95.3,33.3,95.3L33.3,95.3z"></path>		<g>			<path class="wdt-bloby-11" d="M53.5,75.1h-7c-0.3,0-0.6-0.2-0.7-0.6L45,69.2c-1.9-0.5-3.7-1.2-5.5-2.2l-4.5,3.2c-0.3,0.2-0.6,0.2-0.9,0   l-5-4.8c-0.2-0.2-0.3-0.6,0-0.9l3.3-4.3c-1-1.7-1.8-3.4-2.3-5.3l-5.5-0.8c-0.3,0-0.6-0.3-0.6-0.7v-6.8c0-0.3,0.2-0.6,0.6-0.7   l5.5-0.8c0.5-1.8,1.2-3.6,2.3-5.3l-3.3-4.3c-0.2-0.3-0.2-0.7,0-0.9l5-4.8c0.2-0.2,0.6-0.3,0.9,0l4.5,3.2c1.7-1,3.6-1.7,5.5-2.2   l0.8-5.3c0-0.3,0.3-0.6,0.7-0.6h7.1c0.3,0,0.6,0.2,0.7,0.6l0.8,5.3c1.9,0.5,3.7,1.2,5.5,2.2l4.5-3.2c0.3-0.2,0.6-0.2,0.9,0l5,4.8   c0.2,0.2,0.3,0.6,0,0.9l-3.2,4.3c1,1.7,1.8,3.4,2.3,5.3l5.5,0.8c0.3,0,0.6,0.3,0.6,0.7v6.8c0,0.3-0.2,0.6-0.6,0.7l-5.5,0.8   c-0.5,1.8-1.2,3.6-2.3,5.3l3.3,4.3c0.2,0.3,0.2,0.7,0,0.9l-5,4.8c-0.2,0.2-0.6,0.3-0.9,0l-4.5-3.2c-1.7,1-3.6,1.7-5.5,2.2   l-0.8,5.3C54.1,74.9,53.9,75.1,53.5,75.1z M47.1,73.8H53l0.8-5.2c0-0.3,0.3-0.5,0.5-0.5c2.1-0.5,4.1-1.3,5.9-2.3   c0.2-0.1,0.5-0.1,0.8,0l4.4,3.2l4.1-4l-3.3-4.3c-0.2-0.2-0.2-0.5,0-0.8c1.1-1.8,2-3.7,2.4-5.7c0-0.3,0.3-0.5,0.5-0.5l5.4-0.8v-5.7   l-5.4-0.8c-0.3,0-0.5-0.2-0.5-0.5c-0.5-2-1.3-3.9-2.4-5.7c-0.1-0.2-0.1-0.5,0-0.8l3.2-4.2l-4.1-4L61,34.4c-0.2,0.2-0.5,0.2-0.8,0   c-1.8-1.1-3.8-1.9-5.9-2.3c-0.3,0-0.5-0.3-0.5-0.5l-0.8-5.3h-5.9l-0.8,5.2c0,0.3-0.3,0.5-0.5,0.5c-2.1,0.5-4.1,1.3-5.9,2.3   c-0.2,0.1-0.5,0.1-0.8,0l-4.4-3.2l-4.1,4l3.2,4.2c0.2,0.2,0.2,0.5,0,0.8c-1.1,1.8-2,3.7-2.4,5.7c0,0.3-0.3,0.5-0.5,0.5l-5.4,0.9   v5.6l5.4,0.8c0.3,0,0.5,0.2,0.5,0.5c0.5,2,1.3,3.9,2.4,5.7c0.1,0.2,0.1,0.5,0,0.8l-3.2,4.3l4.1,4l4.4-3.2c0.2-0.2,0.5-0.2,0.8,0   c1.8,1.1,3.8,1.9,5.9,2.3c0.3,0,0.5,0.3,0.5,0.5L47.1,73.8z"></path>			<path class="wdt-bloby-11" d="M57.8,38.6c-0.4,0-0.7-0.3-0.7-0.7c0-1.2-1-2.2-2.3-2.2c-0.8,0-1.5,0.4-1.9,1.1c-0.2,0.3-0.6,0.4-0.9,0.2   c-0.3-0.2-0.4-0.6-0.2-0.9c0.7-1.1,1.8-1.7,3.1-1.7c2,0,3.6,1.6,3.6,3.5C58.5,38.3,58.2,38.6,57.8,38.6L57.8,38.6z"></path>			<path class="wdt-bloby-11" d="M61.9,44.2c-0.1,0-0.2,0-0.4-0.1c-0.3-0.2-0.4-0.6-0.2-0.9c0.3-0.5,0.5-1,0.5-1.5c0-1.7-1.4-3-3.2-3   c-0.5,0-0.9,0.1-1.4,0.3c-0.4,0.1-0.7,0-0.9-0.4c-0.1-0.4,0-0.7,0.4-0.9c0.6-0.3,1.2-0.4,1.9-0.4c2.5,0,4.5,2,4.5,4.4   c0,0.8-0.2,1.6-0.6,2.3C62.3,44,62.1,44.2,61.9,44.2z"></path>			<path class="wdt-bloby-11" d="M63.8,48.4c-0.1,0-0.2,0-0.3-0.1c-0.3-0.2-0.5-0.6-0.3-0.9c0.2-0.5,0.4-1,0.4-1.5c0-1.1-0.6-2.2-1.6-2.8   c-0.3-0.2-0.4-0.6-0.2-0.9c0.2-0.3,0.6-0.4,0.9-0.2c1.4,0.9,2.3,2.3,2.3,4c0,0.8-0.2,1.4-0.5,2.1C64.2,48.3,64,48.4,63.8,48.4z"></path>			<path class="wdt-bloby-11" d="M60.3,57.7c-0.4,0-0.7-0.3-0.7-0.7s0.3-0.7,0.7-0.7c2.6,0,4.7-2,4.7-4.6c0-1.8-1-3.4-2.7-4.1   c-0.4-0.1-0.5-0.5-0.3-0.9c0.1-0.4,0.5-0.5,0.9-0.3c2.1,1,3.5,3.1,3.5,5.4C66.4,55,63.7,57.7,60.3,57.7z"></path>			<path class="wdt-bloby-11" d="M58.7,62.6c-0.5,0-0.9,0-1.3-0.2c-0.4-0.1-0.6-0.5-0.5-0.8c0.1-0.4,0.5-0.6,0.8-0.5c0.5,0.1,1,0.1,1.5,0.1   c1.7-0.3,3-1.7,3-3.3c0-0.4-0.1-0.8-0.2-1.1c-0.1-0.4,0-0.7,0.4-0.9s0.7,0,0.9,0.4c0.2,0.5,0.3,1,0.3,1.6c0,2.3-1.8,4.3-4.1,4.7   C59.2,62.6,58.9,62.6,58.7,62.6z"></path>			<path class="wdt-bloby-11" d="M55.4,65.3c-1.3,0-2.6-0.5-3.5-1.5c-0.3-0.3-0.2-0.7,0-0.9c0.3-0.3,0.7-0.2,0.9,0c0.6,0.7,1.5,1.1,2.5,1.1   c1.5,0,2.8-0.9,3.2-2.3c0.1-0.4,0.5-0.5,0.9-0.5c0.4,0.1,0.5,0.5,0.5,0.9C59.2,64,57.4,65.3,55.4,65.3z"></path>			<path class="wdt-bloby-11" d="M42.5,38.6L42.5,38.6c-0.4,0-0.7-0.3-0.7-0.7c0-1.9,1.6-3.5,3.6-3.5c1.3,0,2.4,0.7,3.1,1.7   c0.2,0.3,0.1,0.7-0.2,0.9c-0.3,0.2-0.7,0.1-0.9-0.2c-0.4-0.7-1.2-1.1-1.9-1.1c-1.2,0-2.3,0.9-2.3,2.2   C43.1,38.3,42.9,38.6,42.5,38.6z"></path>			<path class="wdt-bloby-11" d="M38.5,44.2c-0.2,0-0.5-0.1-0.6-0.3c-0.4-0.7-0.6-1.4-0.6-2.3c0-2.4,2-4.4,4.5-4.4c0.7,0,1.3,0.1,1.9,0.4   c0.4,0.1,0.5,0.5,0.4,0.9c-0.1,0.4-0.5,0.5-0.9,0.4c-0.4-0.2-0.9-0.3-1.4-0.3c-1.8,0-3.2,1.4-3.2,3c0,0.5,0.1,1.1,0.5,1.5   c0.2,0.3,0.1,0.7-0.2,0.9C38.7,44.1,38.6,44.2,38.5,44.2z"></path>			<path class="wdt-bloby-11" d="M36.6,48.4c-0.2,0-0.5-0.1-0.6-0.4c-0.4-0.6-0.5-1.4-0.5-2.1c0-1.6,0.9-3.1,2.3-4c0.3-0.2,0.7-0.1,0.9,0.2   c0.2,0.3,0.1,0.7-0.2,0.9c-1,0.6-1.6,1.7-1.6,2.8c0,0.5,0.1,1,0.4,1.5c0.2,0.3,0,0.7-0.3,0.9C36.7,48.4,36.7,48.4,36.6,48.4z"></path>			<path class="wdt-bloby-11" d="M40,57.7c-3.3,0-6.1-2.7-6.1-5.9c0-2.3,1.4-4.4,3.5-5.4c0.4-0.1,0.7,0,0.9,0.3c0.1,0.4,0,0.7-0.3,0.9   c-1.6,0.8-2.7,2.4-2.7,4.1c0,2.5,2.1,4.6,4.7,4.6c0.4,0,0.7,0.3,0.7,0.7S40.4,57.7,40,57.7z"></path>			<path class="wdt-bloby-11" d="M41.7,62.6c-0.2,0-0.5,0-0.7,0c-2.3-0.4-4.1-2.3-4.1-4.7c0-0.5,0.1-1.1,0.3-1.6c0.1-0.4,0.5-0.5,0.9-0.4   c0.4,0.1,0.5,0.5,0.4,0.9c-0.1,0.4-0.2,0.8-0.2,1.1c0,1.7,1.3,3.1,3,3.3c0.5,0.1,1,0,1.5-0.1c0.4-0.1,0.7,0.1,0.8,0.5   c0.1,0.4-0.1,0.7-0.5,0.8C42.6,62.6,42.1,62.6,41.7,62.6z"></path>			<path class="wdt-bloby-11" d="M45,65.3c-2.1,0-3.9-1.3-4.5-3.2c-0.1-0.4,0.1-0.7,0.5-0.9c0.4-0.1,0.7,0.1,0.9,0.5c0.5,1.4,1.7,2.3,3.2,2.3   c0.9,0,1.8-0.4,2.5-1.1c0.3-0.3,0.7-0.3,0.9,0c0.3,0.3,0.3,0.7,0,0.9C47.6,64.8,46.3,65.3,45,65.3z"></path>			<path class="wdt-bloby-11" d="M50,64c-0.4,0-0.7-0.3-0.7-0.7V36.5c0-0.4,0.3-0.7,0.7-0.7c0.4,0,0.7,0.3,0.7,0.7v26.8   C50.7,63.7,50.4,64,50,64z"></path>			<path class="wdt-bloby-11" d="M55.5,45.2c-0.2,0-0.3,0-0.5-0.2c-0.3-0.3-0.3-0.7,0-0.9c0.2-0.3,0.4-0.6,0.3-1c-0.1-0.4-0.3-0.7-0.6-0.8   c-0.3-0.2-0.5-0.6-0.3-0.9c0.2-0.3,0.6-0.5,0.9-0.3c0.7,0.4,1.2,1,1.4,1.8c0.1,0.8-0.1,1.6-0.6,2.1C55.9,45.1,55.7,45.2,55.5,45.2   z"></path>			<path class="wdt-bloby-11" d="M40.1,52.1c-0.2,0-0.3,0-0.5-0.2c-0.3-0.3-0.3-0.7,0-0.9l0.1-0.1c1.3-1.4,3.4-1.6,5-0.5   c0.3,0.2,0.4,0.6,0.2,0.9c-0.2,0.3-0.6,0.4-0.9,0.2c-1-0.7-2.4-0.5-3.2,0.4l-0.1,0.1C40.5,52,40.3,52.1,40.1,52.1z"></path>			<path class="wdt-bloby-11" d="M56.1,55.7c-0.3,0-0.5-0.2-0.6-0.5l-0.1-0.4c-0.6-1.5,0-3.2,1.3-4.1c0.3-0.2,0.7-0.1,0.9,0.2   c0.2,0.3,0.1,0.7-0.2,0.9c-0.8,0.6-1.2,1.6-0.8,2.5l0.1,0.4c0.1,0.4,0,0.7-0.4,0.9C56.3,55.7,56.2,55.7,56.1,55.7z"></path>			<path class="wdt-bloby-11" d="M45.6,45.6c-0.3,0-0.6-0.2-0.7-0.5c0-0.4,0.2-0.7,0.5-0.8l0.5-0.1c0.8-0.1,1.4-0.8,1.4-1.6   c0-0.4,0.3-0.7,0.7-0.7s0.7,0.3,0.7,0.7c0,1.4-1,2.7-2.5,2.9l-0.5,0.1C45.7,45.6,45.6,45.6,45.6,45.6z"></path>			<path class="wdt-bloby-11" d="M44.1,59.1c-0.1,0-0.1,0-0.2,0c-0.4-0.1-0.5-0.5-0.5-0.9c0.5-1.5,1.8-2.5,3.5-2.7c0.4,0,0.7,0.3,0.7,0.6   c0,0.4-0.3,0.7-0.6,0.7c-1.1,0.1-1.9,0.8-2.3,1.7C44.7,58.9,44.5,59.1,44.1,59.1z"></path>		</g>	</g></svg>