<svg xmlns="http://www.w3.org/2000/svg" xmlns:xlink="http://www.w3.org/1999/xlink" x="0px" y="0px" viewBox="0 0 100 100" style="enable-background:new 0 0 100 100;" xml:space="preserve">	<style type="text/css">	.wdt-bloby-02{fill:#F8AD12;}	.wdt-bloby-22{fill:#ffff;}	</style>	<g>		<path class="wdt-bloby-02 wdt-str-spin" d="M73.2,90.1l0.1-0.2c1.1-0.7,2-1.4,2.9-2.3l0,0l0,0c4.8-4.3,10.6-16.1,10.6-16.1l0.1-0.4c0,0,1.1-3.2,1.7-4.7  c2.9-9.9,4.2-20.3,4-30.7c-0.2-9.6-1.3-21.4-9.5-27.7c-3.9-2.9-8.8-3.9-13.5-4C64,3.8,58.3,3.8,52.7,3.8c-5.3-0.1-10.8-0.3-16.1,0  c-4.8,0.3-9.8,1.3-14.2,3.4c-4.3,2.2-7.6,5.8-9.8,10.2c-2.2,4.5-3.2,9.4-3.9,14.4c-1.2,9.6-2.3,19.9-0.1,29.5  c0.4,1.5,0.7,2.9,1.2,4.4c1.1,6.5,4,12.6,8.5,17.5c6.4,7,15.4,11,24.8,12.5c9.7,1.5,20.4,0.5,29-4.6c0.3-0.2,0.6-0.3,0.9-0.6  C72.9,90.3,73.2,90.2,73.2,90.1L73.2,90.1z"></path>		<g>			<g>				<g>					<path class="wdt-bloby-22" d="M71.9,55.6c-0.4,0-0.7-0.3-0.7-0.7v-4.5c0-1.3,0.2-2.6,0.6-3.8l1.1-3.1c0.4-1.1,0.6-2.2,0.6-3.4v-9.5     c0-0.4,0.3-0.7,0.7-0.7c0.4,0,0.7,0.3,0.7,0.7v9.5c0,1.3-0.2,2.6-0.6,3.8L73.1,47c-0.4,1.1-0.6,2.2-0.6,3.4v4.5     C72.6,55.3,72.2,55.6,71.9,55.6z"></path>				</g>				<g>					<path class="wdt-bloby-22" d="M61.3,54.4c-0.4,0-0.7-0.3-0.7-0.7v-2.4c0-0.9-0.3-1.8-1-2.4l-2.3-2.3c-0.8-0.8-1.2-1.8-1.2-3v-1.8     c0-0.4,0.3-0.7,0.7-0.7c0.4,0,0.7,0.3,0.7,0.7v1.8c0,0.7,0.3,1.5,0.8,2l2.3,2.3c0.9,0.9,1.3,2.1,1.3,3.4v2.4     C62,54.1,61.7,54.4,61.3,54.4z"></path>				</g>				<g>					<path class="wdt-bloby-22" d="M60.8,43.6c-0.4,0-0.7-0.3-0.7-0.7v-6.6c0-0.4,0.3-0.7,0.7-0.7s0.7,0.3,0.7,0.7v6.5     C61.5,43.3,61.1,43.6,60.8,43.6z"></path>				</g>				<g>					<path class="wdt-bloby-22" d="M64.1,38c-0.4,0-0.7-0.3-0.7-0.7v-6.7c0-0.6-0.4-1-1-1c-0.6,0-1,0.4-1,1v5.8c0,0.4-0.3,0.7-0.7,0.7     c-0.4,0-0.7-0.3-0.7-0.7v-5.8c0-1.3,1.1-2.3,2.3-2.3c1.3,0,2.3,1.1,2.3,2.3v6.7C64.8,37.7,64.5,38,64.1,38z"></path>				</g>				<g>					<path class="wdt-bloby-22" d="M67.4,31.3c-0.4,0-0.7-0.3-0.7-0.7c0-0.6-0.4-1-1-1c-0.6,0-1,0.4-1,1c0,0.4-0.3,0.7-0.7,0.7     c-0.4,0-0.7-0.3-0.7-0.7c0-1.3,1.1-2.3,2.3-2.3s2.3,1.1,2.3,2.3C68.1,31,67.8,31.3,67.4,31.3z"></path>				</g>				<g>					<path class="wdt-bloby-22" d="M67.4,37c-0.4,0-0.7-0.3-0.7-0.7v-5.8c0-1.3,1.1-2.3,2.3-2.3s2.3,1.1,2.3,2.3c0,0.4-0.3,0.7-0.7,0.7     c-0.4,0-0.7-0.3-0.7-0.7c0-0.6-0.4-1-1-1c-0.6,0-1,0.4-1,1v5.8C68.1,36.8,67.8,37,67.4,37z"></path>				</g>				<g>					<path class="wdt-bloby-22" d="M70.7,37c-0.4,0-0.7-0.3-0.7-0.7v-5.8c0-1.3,1.1-2.3,2.3-2.3s2.3,1.1,2.3,2.3c0,0.4-0.3,0.7-0.7,0.7     c-0.4,0-0.7-0.3-0.7-0.7c0-0.6-0.4-1-1-1c-0.6,0-1,0.4-1,1v5.8C71.4,36.8,71.1,37,70.7,37z"></path>				</g>			</g>			<g>				<g>					<path class="wdt-bloby-22" d="M58,32H47.4c-1.3,0-2.6-0.2-3.8-0.6l-3.1-1.1c-1.1-0.4-2.2-0.6-3.4-0.6h-9.5c-0.4,0-0.7-0.3-0.7-0.7     s0.3-0.7,0.7-0.7h9.5c1.3,0,2.6,0.2,3.8,0.6L44,30c1.1,0.4,2.2,0.6,3.4,0.6H58c0.4,0,0.7,0.3,0.7,0.7S58.4,32,58,32z"></path>				</g>				<g>					<path class="wdt-bloby-22" d="M40.6,46.9h-3.7c-2.3,0-4.3-1.9-4.3-4.3v-0.3c0-0.4,0.3-0.7,0.7-0.7h6.5c0.4,0,0.7,0.3,0.7,0.7     s-0.3,0.7-0.7,0.7h-5.8c0.2,1.4,1.4,2.5,2.9,2.5h3.7c0.7,0,1.5-0.3,2-0.8l2.3-2.3c0.9-0.9,2.1-1.3,3.4-1.3h12.4     c0.4,0,0.7,0.3,0.7,0.7s-0.3,0.7-0.7,0.7H48.4c-0.9,0-1.8,0.3-2.4,1l-2.3,2.3C42.8,46.5,41.8,46.9,40.6,46.9z"></path>				</g>				<g>					<path class="wdt-bloby-22" d="M33.3,43.1h-5.8c-1.3,0-2.3-1.1-2.3-2.3c0-1.3,1.1-2.3,2.3-2.3h6.7c0.4,0,0.7,0.3,0.7,0.7s-0.3,0.7-0.7,0.7     h-6.7c-0.6,0-1,0.4-1,1s0.4,1,1,1h5.8c0.4,0,0.7,0.3,0.7,0.7C34,42.7,33.7,43.1,33.3,43.1z"></path>				</g>				<g>					<path class="wdt-bloby-22" d="M27.6,39.8c-1.3,0-2.3-1.1-2.3-2.3c0-1.3,1.1-2.3,2.3-2.3c0.4,0,0.7,0.3,0.7,0.7s-0.3,0.7-0.7,0.7     c-0.6,0-1,0.4-1,1s0.4,1,1,1c0.4,0,0.7,0.3,0.7,0.7S27.9,39.8,27.6,39.8z"></path>				</g>				<g>					<path class="wdt-bloby-22" d="M33.3,36.4h-5.8c-1.3,0-2.3-1.1-2.3-2.3s1.1-2.3,2.3-2.3c0.4,0,0.7,0.3,0.7,0.7s-0.3,0.7-0.7,0.7     c-0.6,0-1,0.4-1,1s0.4,1,1,1h5.8c0.4,0,0.7,0.3,0.7,0.7C34,36.1,33.7,36.4,33.3,36.4z"></path>				</g>				<g>					<path class="wdt-bloby-22" d="M33.3,33.1h-5.8c-1.3,0-2.3-1.1-2.3-2.3s1.1-2.3,2.3-2.3c0.4,0,0.7,0.3,0.7,0.7s-0.3,0.7-0.7,0.7     c-0.6,0-1,0.4-1,1s0.4,1,1,1h5.8c0.4,0,0.7,0.3,0.7,0.7S33.7,33.1,33.3,33.1z"></path>				</g>			</g>			<g>				<g>					<path class="wdt-bloby-22" d="M25.9,70.1c-0.4,0-0.7-0.3-0.7-0.7v-9.4c0-1.3,0.2-2.6,0.6-3.8l1.1-3.2c0.4-1.1,0.6-2.2,0.6-3.4v-4.7     c0-0.4,0.3-0.7,0.7-0.7s0.7,0.3,0.7,0.7v4.7c0,1.3-0.2,2.6-0.6,3.8l-1.1,3.1c-0.4,1.1-0.6,2.2-0.6,3.4v9.5     C26.6,69.8,26.3,70.1,25.9,70.1z"></path>				</g>				<g>					<path class="wdt-bloby-22" d="M43.1,58.8c-0.4,0-0.7-0.3-0.7-0.7v-1.8c0-0.7-0.3-1.5-0.8-2L39.4,52c-0.9-0.9-1.3-2.1-1.3-3.4v-2.4     c0-0.4,0.3-0.7,0.7-0.7s0.7,0.3,0.7,0.7v2.4c0,0.9,0.3,1.8,1,2.4l2.2,2.3c0.8,0.8,1.2,1.8,1.2,3v1.8     C43.8,58.5,43.5,58.8,43.1,58.8z"></path>				</g>				<g>					<path class="wdt-bloby-22" d="M39.2,64.3c-0.4,0-0.7-0.3-0.7-0.7v-6.6c0-0.4,0.3-0.7,0.7-0.7s0.7,0.3,0.7,0.7v6.5     C39.9,64,39.6,64.3,39.2,64.3z"></path>				</g>				<g>					<path class="wdt-bloby-22" d="M37.6,71.8c-1.3,0-2.3-1.1-2.3-2.3v-6.7c0-0.4,0.3-0.7,0.7-0.7s0.7,0.3,0.7,0.7v6.7c0,0.6,0.4,1,1,1     s1-0.4,1-1v-5.7c0-0.4,0.3-0.7,0.7-0.7s0.7,0.3,0.7,0.7v5.8C39.9,70.7,38.9,71.8,37.6,71.8z"></path>				</g>				<g>					<path class="wdt-bloby-22" d="M34.2,71.8c-1.3,0-2.3-1.1-2.3-2.3c0-0.4,0.3-0.7,0.7-0.7s0.7,0.3,0.7,0.7c0,0.6,0.4,1,1,1s1-0.4,1-1     c0-0.4,0.3-0.7,0.7-0.7s0.7,0.3,0.7,0.7C36.6,70.7,35.5,71.8,34.2,71.8z"></path>				</g>				<g>					<path class="wdt-bloby-22" d="M30.9,71.8c-1.3,0-2.3-1.1-2.3-2.3c0-0.4,0.3-0.7,0.7-0.7s0.7,0.3,0.7,0.7c0,0.6,0.4,1,1,1s1-0.4,1-1v-5.8     c0-0.4,0.3-0.7,0.7-0.7s0.7,0.3,0.7,0.7v5.8C33.2,70.7,32.2,71.8,30.9,71.8z"></path>				</g>				<g>					<path class="wdt-bloby-22" d="M27.6,71.8c-1.3,0-2.3-1.1-2.3-2.3c0-0.4,0.3-0.7,0.7-0.7s0.7,0.3,0.7,0.7c0,0.6,0.4,1,1,1c0.6,0,1-0.4,1-1     v-5.8c0-0.4,0.3-0.7,0.7-0.7s0.7,0.3,0.7,0.7v5.8C29.9,70.7,28.9,71.8,27.6,71.8z"></path>				</g>			</g>			<g>				<g>					<path class="wdt-bloby-22" d="M72.4,71.6h-9.5c-1.3,0-2.6-0.2-3.8-0.6L56,70c-1.1-0.4-2.2-0.6-3.4-0.6H42c-0.4,0-0.7-0.3-0.7-0.7     c0-0.4,0.3-0.7,0.7-0.7h10.6c1.3,0,2.6,0.2,3.8,0.6l3.1,1.1c1.1,0.4,2.2,0.6,3.4,0.6h9.5c0.4,0,0.7,0.3,0.7,0.7     C73.1,71.3,72.8,71.6,72.4,71.6z"></path>				</g>				<g>					<path class="wdt-bloby-22" d="M51.7,58.8H39.2c-0.4,0-0.7-0.3-0.7-0.7c0-0.4,0.3-0.7,0.7-0.7h12.4c0.9,0,1.8-0.3,2.4-1l2.3-2.3     c0.8-0.8,1.8-1.2,3-1.2h3.7c2.3,0,4.3,1.9,4.3,4.3v0.3c0,0.4-0.3,0.7-0.7,0.7h-6.6c-0.4,0-0.7-0.3-0.7-0.7     c0-0.4,0.3-0.7,0.7-0.7h5.8c-0.2-1.4-1.4-2.5-2.9-2.5h-3.7c-0.7,0-1.5,0.3-2,0.8L55,57.5C54.1,58.4,52.9,58.8,51.7,58.8z"></path>				</g>				<g>					<path class="wdt-bloby-22" d="M72.4,61.6h-6.7c-0.4,0-0.7-0.3-0.7-0.7c0-0.4,0.3-0.7,0.7-0.7h6.7c0.6,0,1-0.4,1-1s-0.4-1-1-1h-5.8     c-0.4,0-0.7-0.3-0.7-0.7c0-0.4,0.3-0.7,0.7-0.7h5.8c1.3,0,2.3,1.1,2.3,2.3C74.8,60.6,73.7,61.6,72.4,61.6z"></path>				</g>				<g>					<path class="wdt-bloby-22" d="M72.4,64.9c-0.4,0-0.7-0.3-0.7-0.7c0-0.4,0.3-0.7,0.7-0.7c0.6,0,1-0.4,1-1s-0.4-1-1-1     c-0.4,0-0.7-0.3-0.7-0.7c0-0.4,0.3-0.7,0.7-0.7c1.3,0,2.3,1.1,2.3,2.3C74.8,63.9,73.7,64.9,72.4,64.9z"></path>				</g>				<g>					<path class="wdt-bloby-22" d="M72.4,68.3c-0.4,0-0.7-0.3-0.7-0.7c0-0.4,0.3-0.7,0.7-0.7c0.6,0,1-0.4,1-1c0-0.6-0.4-1-1-1h-5.8     c-0.4,0-0.7-0.3-0.7-0.7c0-0.4,0.3-0.7,0.7-0.7h5.8c1.3,0,2.3,1.1,2.3,2.3C74.8,67.3,73.7,68.3,72.4,68.3z"></path>				</g>				<g>					<path class="wdt-bloby-22" d="M72.4,71.6c-0.4,0-0.7-0.3-0.7-0.7c0-0.4,0.3-0.7,0.7-0.7c0.6,0,1-0.4,1-1c0-0.6-0.4-1-1-1h-5.8     c-0.4,0-0.7-0.3-0.7-0.7c0-0.4,0.3-0.7,0.7-0.7h5.8c1.3,0,2.3,1.1,2.3,2.3C74.8,70.6,73.7,71.6,72.4,71.6z"></path>				</g>			</g>		</g>	</g></svg>