<svg xmlns="http://www.w3.org/2000/svg" xmlns:xlink="http://www.w3.org/1999/xlink" x="0px" y="0px" viewBox="0 0 100 100" style="enable-background:new 0 0 100 100;" xml:space="preserve">	<style type="text/css">	.wdt-bloby-04{fill:#F96EA0;}	.wdt-bloby-44{fill:#ffff;}	</style>	<g>		<path class="wdt-bloby-04 wdt-str-spin" d="M73.2,90.2l0.1-0.2c1.1-0.7,2-1.4,2.9-2.3l0,0l0,0c4.8-4.3,10.6-16.1,10.6-16.1l0.1-0.4c0,0,1.1-3.2,1.7-4.7  c2.9-9.9,4.2-20.3,4-30.7c-0.2-9.6-1.3-21.4-9.5-27.7c-3.9-2.9-8.8-3.9-13.5-4C64,3.9,58.3,3.9,52.7,3.9c-5.3-0.1-10.8-0.3-16.1,0  c-4.8,0.3-9.8,1.3-14.2,3.4c-4.3,2.2-7.6,5.8-9.8,10.2c-2.2,4.5-3.2,9.4-3.9,14.4c-1.2,9.6-2.3,19.9-0.1,29.5  c0.4,1.5,0.7,2.9,1.2,4.4c1.1,6.5,4,12.6,8.5,17.5c6.4,7,15.4,11,24.8,12.5c9.7,1.5,20.4,0.5,29-4.6c0.3-0.2,0.6-0.3,0.9-0.6  C72.9,90.4,73.2,90.3,73.2,90.2L73.2,90.2z"></path>		<g>			<path class="wdt-bloby-44" d="M50.5,61.9c-6,0-12.1-2.2-16.9-6.5c-0.3-0.3-0.5-0.7-0.5-1.2V42.2c0-0.4,0.3-0.7,0.7-0.7   c0.4,0,0.7,0.3,0.7,0.7v12.1c0,0,0,0,0,0.1c9.1,8.1,22.8,8.1,31.8,0c0,0,0,0,0-0.1V42.2c0-0.4,0.3-0.7,0.7-0.7s0.7,0.3,0.7,0.7   v12.1c0,0.4-0.2,0.9-0.5,1.2C62.6,59.8,56.6,61.9,50.5,61.9z"></path>			<path class="wdt-bloby-44" d="M50.5,50c-0.7,0-1.4-0.1-2-0.4l0,0l-22-10.1c-0.3-0.1-0.5-0.5-0.5-0.8c0-0.3,0.2-0.7,0.5-0.8l22-10.1   c1.3-0.6,2.8-0.6,4.1,0l22,10.1c0.3,0.1,0.5,0.5,0.5,0.8c0,0.3-0.2,0.7-0.5,0.8l-22,10.1C51.9,49.9,51.2,50,50.5,50z M49.1,48.3   c0.9,0.4,1.9,0.4,2.8,0l20.9-9.6L52,29c-0.9-0.4-1.9-0.4-2.8,0l-20.9,9.6L49.1,48.3z M74,39.1L74,39.1L74,39.1z"></path>			<path class="wdt-bloby-44" d="M28.6,62c-0.5,0-1-0.1-1.4-0.3c-0.9-0.4-1.6-1.1-2-2c-0.8-1.9,0.1-4.1,2-4.9c0.9-0.4,1.9-0.4,2.8,0   c0.9,0.4,1.6,1.1,2,2c0.8,1.9-0.1,4.1-2,4.9l0,0C29.6,61.9,29.1,62,28.6,62z M29.8,61.1L29.8,61.1L29.8,61.1z M28.6,56   c-0.3,0-0.6,0-0.9,0.2c-1.2,0.5-1.7,1.8-1.2,2.9c0.2,0.6,0.7,1,1.2,1.2c0.6,0.2,1.2,0.2,1.7,0l0,0c1.2-0.5,1.7-1.8,1.2-2.9   c-0.2-0.6-0.7-1-1.2-1.2C29.2,56.1,28.9,56,28.6,56z"></path>			<path class="wdt-bloby-44" d="M28.6,56c-0.4,0-0.7-0.3-0.7-0.7V43.5c0-1.7,1.3-3.2,3-3.4l19.5-2.2c0.4,0,0.8,0.2,0.8,0.6   c0,0.4-0.2,0.8-0.6,0.8l-19.5,2.2c-1,0.1-1.7,1-1.7,1.9v11.8C29.4,55.7,29,56,28.6,56z"></path>			<path class="wdt-bloby-44" d="M30,72.8h-2.8c-0.6,0-1.2-0.3-1.6-0.8c-0.4-0.5-0.6-1.1-0.5-1.7l1.2-7.1c0-0.4,0.4-0.7,0.8-0.6   c0.4,0,0.7,0.4,0.6,0.8l-1.2,7.1c0,0.3,0.1,0.4,0.1,0.5c0.1,0.1,0.2,0.2,0.5,0.2H30c0.3,0,0.4-0.1,0.5-0.2   c0.1-0.1,0.2-0.3,0.1-0.5l-1.2-7.1c0-0.4,0.2-0.8,0.6-0.8c0.4,0,0.8,0.2,0.8,0.6l1.2,7.1c0.1,0.6,0,1.3-0.5,1.7   C31.3,72.5,30.7,72.8,30,72.8z"></path>		</g>	</g></svg>