<svg xmlns="http://www.w3.org/2000/svg" xmlns:xlink="http://www.w3.org/1999/xlink" x="0px" y="0px" viewBox="0 0 100 100" style="enable-background:new 0 0 100 100;" xml:space="preserve">	<style type="text/css">	.wdt-bloby-03{fill:#88B520;}	.wdt-bloby-33{fill:#ffff;}	</style>	<path class="wdt-bloby-03 wdt-str-spin" d="M10.5,74.8l0.2,0.1c0.7,1.1,1.5,2,2.4,2.8l0,0l0,0c4.5,4.7,16.4,10.1,16.4,10.1l0.5,0.1c0,0,3.2,1,4.8,1.5 c10,2.6,20.5,3.5,30.8,3c9.5-0.5,21.3-2.1,27.3-10.5c2.7-4,3.6-8.9,3.6-13.7c0-5.6-0.2-11.3-0.3-16.9C96,46,96,40.6,95.6,35.2 c-0.5-4.8-1.6-9.8-3.9-14.1c-2.4-4.3-6.1-7.4-10.6-9.4c-4.6-2-9.5-2.9-14.5-3.4C57,7.4,46.7,6.7,37.1,9.2c-1.4,0.4-2.9,0.8-4.3,1.3 c-6.5,1.3-12.5,4.4-17.2,9.1C8.8,26.2,5.1,35.4,4,44.8c-1.1,9.7,0.2,20.4,5.6,28.8c0.2,0.3,0.3,0.6,0.6,0.9 C10.2,74.4,10.4,74.7,10.5,74.8L10.5,74.8z"></path>	<g>		<g>			<g>				<g>					<path class="wdt-bloby-33" d="M64.3,45c-1.8,0-3.3-1.5-3.3-3.3c0-0.3,0-0.5,0.1-0.7h-4c-0.3,0-0.6-0.3-0.6-0.6v-5c0-0.2,0.1-0.4,0.3-0.5     c0.2-0.1,0.4-0.1,0.6,0c0.3,0.2,0.7,0.3,1,0.3c1.1,0,2.1-0.9,2.1-2.1c0-1.1-1-2.1-2.1-2.1c-0.4,0-0.7,0.1-1,0.3     c-0.2,0.1-0.4,0.1-0.6,0c-0.2-0.1-0.3-0.3-0.3-0.5V26c0-0.3,0.3-0.6,0.6-0.6c4-0.1,7.8,1.4,10.6,4.2S72.1,36,72.1,40     c0,0.1,0,0.2,0,0.3c0,0.1,0,0.2,0,0.3c-0.1,0.2-0.3,0.4-0.6,0.4h-3.9c0,0.3,0.1,0.5,0.1,0.8C67.7,43.5,66.1,45,64.3,45z      M57.7,39.7H62c0.2,0,0.4,0.1,0.5,0.3s0.1,0.4,0,0.6c-0.2,0.3-0.3,0.7-0.3,1c0,1.1,0.9,2.1,2.1,2.1s2.1-0.9,2.1-2.1     c0-0.4-0.1-0.8-0.3-1c-0.1-0.2-0.1-0.4,0-0.6c0.1-0.2,0.3-0.3,0.5-0.3h4.2c-0.1-3.5-1.5-6.8-4-9.3c-2.5-2.4-5.7-3.7-9.1-3.8v3.3     c0.3,0,0.5-0.1,0.8-0.1c1.8,0,3.3,1.5,3.3,3.3c0,1.8-1.5,3.3-3.3,3.3c-0.3,0-0.5,0-0.7-0.1L57.7,39.7     C57.7,39.7,57.7,39.7,57.7,39.7z"></path>				</g>				<g>					<path class="wdt-bloby-33" d="M53.3,70.9h-7.5c-1.4,0-2.6-1.2-2.6-2.6v-2.1c0-3.4-2.2-6.2-4.3-8.5c-2.9-3.1-4.3-6.2-4.4-9.8v-0.4     c0-4,1.6-7.7,4.4-10.5c2.9-2.8,6.6-4.3,10.6-4.2c0.3,0,0.6,0.3,0.6,0.6v3.9c0.2,0,0.4,0,0.7,0c1.8,0,3.3,1.5,3.3,3.3     c0,1.8-1.5,3.3-3.3,3.3c-0.3,0-0.5,0-0.7-0.1v3.4h4.3c0.2,0,0.4,0.1,0.5,0.3c0.1,0.2,0.1,0.4,0,0.6c-0.2,0.3-0.3,0.7-0.3,1     c0,1.1,0.9,2.1,2.1,2.1c1.1,0,2.1-0.9,2.1-2.1c0-0.4-0.1-0.7-0.3-1c-0.1-0.2-0.1-0.4,0-0.6c0.1-0.2,0.3-0.3,0.5-0.3h4.7     c0,0,0,0,0.1,0c0.3,0,0.6,0.3,0.6,0.6l0,0c0,0,0,0,0,0c-0.1,3.6-1.5,6.7-4.4,9.8c-2.1,2.3-4.3,5-4.3,8.5v2.1     C55.9,69.7,54.7,70.9,53.3,70.9z M48.9,34.1c-3.4,0.1-6.6,1.4-9.1,3.8c-2.6,2.6-4,6-4,9.6v0.4c0.1,3.3,1.3,6,4,8.9     c2.3,2.4,4.7,5.5,4.7,9.3v2.1c0,0.7,0.6,1.3,1.3,1.3h7.5c0.7,0,1.3-0.6,1.3-1.3v-2.1c0-3.9,2.4-6.9,4.7-9.3     c2.5-2.7,3.8-5.3,4-8.4H60c0,0.3,0.1,0.5,0.1,0.8c0,1.8-1.5,3.3-3.3,3.3c-1.8,0-3.3-1.5-3.3-3.3c0-0.3,0-0.5,0.1-0.7h-4     c-0.3,0-0.6-0.3-0.6-0.6v-5c0-0.2,0.1-0.4,0.3-0.5c0.2-0.1,0.4-0.1,0.6,0c0.3,0.2,0.7,0.3,1,0.3c1.1,0,2.1-0.9,2.1-2.1     c0-1.1-0.9-2-2.1-2c-0.4,0-0.7,0.1-1,0.3c-0.2,0.1-0.4,0.1-0.6,0c-0.2-0.1-0.3-0.3-0.3-0.5V34.1z"></path>				</g>				<g>					<path class="wdt-bloby-33" d="M49.6,74.7c-2,0-3.6-1.6-3.6-3.6v-0.7c0-0.3,0.3-0.6,0.6-0.6c0.3,0,0.6,0.3,0.6,0.6v0.7     c0,1.3,1,2.4,2.4,2.4c1.3,0,2.4-1,2.4-2.4v-0.7c0-0.3,0.3-0.6,0.6-0.6c0.3,0,0.6,0.3,0.6,0.6v0.7C53.2,73.1,51.6,74.7,49.6,74.7     z"></path>				</g>				<g>					<path class="wdt-bloby-33" d="M55.5,64h-12c-0.3,0-0.6-0.3-0.6-0.6c0-0.3,0.3-0.6,0.6-0.6h12c0.3,0,0.6,0.3,0.6,0.6     C56.1,63.7,55.9,64,55.5,64z"></path>				</g>			</g>			<g>				<path class="wdt-bloby-33" d="M49.5,34.1c0,0-0.1,0-0.1,0c-0.3,0-0.5-0.3-0.5-0.6c0-0.3,0.3-0.6,0.6-0.6h0c0.3,0,0.6,0.3,0.6,0.6    C50.1,33.8,49.9,34.1,49.5,34.1z"></path>			</g>			<g>				<path class="wdt-bloby-33" d="M64,48.5c-0.3,0-0.6-0.3-0.6-0.6c0-0.1,0-0.1,0-0.2c0.1-0.3,0.3-0.5,0.6-0.5c0.3,0,0.6,0.3,0.6,0.6v0    C64.6,48.2,64.3,48.5,64,48.5z"></path>			</g>			<g>				<path class="wdt-bloby-33" d="M49.6,63.7c-0.3,0-0.6-0.3-0.6-0.6v-4.8c-0.3,0-0.5,0.1-0.8,0.1c-1.8,0-3.3-1.5-3.3-3.3    c0-1.8,1.5-3.3,3.3-3.3c0.3,0,0.5,0,0.7,0.1v-4c0-0.3,0.3-0.6,0.6-0.6c0.3,0,0.6,0.3,0.6,0.6v5c0,0.2-0.1,0.4-0.3,0.5    s-0.4,0.1-0.6,0c-0.3-0.2-0.7-0.3-1-0.3c-1.1,0-2.1,0.9-2.1,2.1s0.9,2.1,2.1,2.1c0.4,0,0.8-0.1,1-0.3c0.2-0.1,0.4-0.1,0.6,0    s0.3,0.3,0.3,0.5v5.7C50.2,63.5,49.9,63.7,49.6,63.7z"></path>			</g>			<g>				<path class="wdt-bloby-33" d="M35.2,48.6c-0.3,0-0.6-0.3-0.6-0.6v0c0-0.3,0.3-0.6,0.6-0.6h3.9c0-0.3-0.1-0.5-0.1-0.8    c0-1.8,1.5-3.3,3.3-3.3s3.3,1.5,3.3,3.3c0,0.3,0,0.5-0.1,0.7h4c0.3,0,0.6,0.3,0.6,0.6c0,0.3-0.3,0.6-0.6,0.6h-5    c-0.2,0-0.4-0.1-0.5-0.3c-0.1-0.2-0.1-0.4,0-0.6c0.2-0.3,0.3-0.7,0.3-1c0-1.1-0.9-2.1-2.1-2.1c-1.1,0-2.1,0.9-2.1,2.1    c0,0.4,0.1,0.8,0.3,1c0.1,0.2,0.1,0.4,0,0.6s-0.3,0.3-0.5,0.3h-4.6C35.3,48.6,35.2,48.6,35.2,48.6z"></path>			</g>		</g>		<g>			<path class="wdt-bloby-33" d="M49.5,30.5c-0.3,0-0.6-0.3-0.6-0.6v-3c0-0.3,0.3-0.6,0.6-0.6c0.3,0,0.6,0.3,0.6,0.6v3   C50.1,30.3,49.9,30.5,49.5,30.5z"></path>		</g>		<g>			<path class="wdt-bloby-33" d="M36.8,35.8c-0.2,0-0.3,0-0.5-0.2l-2.1-2.1c-0.3-0.3-0.3-0.6,0-0.9c0.3-0.3,0.6-0.3,0.9,0l2.1,2.1   c0.3,0.3,0.3,0.6,0,0.9C37.1,35.8,37,35.8,36.8,35.8z"></path>		</g>		<g>			<path class="wdt-bloby-33" d="M31.6,48.6h-3c-0.3,0-0.6-0.3-0.6-0.6c0-0.3,0.3-0.6,0.6-0.6h3c0.3,0,0.6,0.3,0.6,0.6   C32.2,48.3,31.9,48.6,31.6,48.6z"></path>		</g>		<g>			<path class="wdt-bloby-33" d="M34.7,63.4c-0.2,0-0.3,0-0.5-0.2c-0.3-0.3-0.3-0.6,0-0.9l2.1-2.1c0.3-0.3,0.6-0.3,0.9,0   c0.3,0.3,0.3,0.6,0,0.9l-2.1,2.1C35.1,63.3,34.9,63.4,34.7,63.4z"></path>		</g>		<g>			<path class="wdt-bloby-33" d="M64.5,63.3c-0.2,0-0.3,0-0.5-0.2L61.9,61c-0.3-0.3-0.3-0.6,0-0.9c0.3-0.3,0.6-0.3,0.9,0l2.1,2.1   c0.3,0.3,0.3,0.6,0,0.9C64.8,63.2,64.6,63.3,64.5,63.3z"></path>		</g>		<g>			<path class="wdt-bloby-33" d="M70.5,48.5h-3c-0.3,0-0.6-0.3-0.6-0.6c0-0.3,0.3-0.6,0.6-0.6h3c0.3,0,0.6,0.3,0.6,0.6S70.9,48.5,70.5,48.5z"></path>		</g>	</g></svg>